<svg width="24" height="24" viewBox="0 0 24 24" fill="none" xmlns="http://www.w3.org/2000/svg">
<path fill-rule="evenodd" clip-rule="evenodd" d="M3.7842 1.69422C3.99131 1.3355 4.45 1.21259 4.80872 1.4197L9.41773 4.08071C9.68165 4.01477 9.94353 3.96313 10.1952 3.92204C11.4767 3.71279 12.7942 3.73715 13.3221 3.7469L13.3221 3.74691C13.3996 3.74834 13.46 3.74945 13.5009 3.74947C14.191 3.74981 14.7503 4.30936 14.7503 4.99947C14.7503 5.89494 14.904 6.72829 15.2207 7.43108L19.2295 9.74552C19.3179 9.7483 19.4082 9.74972 19.5003 9.74972C20.0443 9.74972 20.5071 10.0972 20.6789 10.5824L22.8747 11.8501C23.2335 12.0572 23.3564 12.5159 23.1493 12.8746C22.9421 13.2334 22.4835 13.3563 22.1247 13.1492L20.1982 12.0369C19.9989 12.1713 19.7588 12.2497 19.5003 12.2497C16.9496 12.2497 15.0691 11.3848 13.8525 9.92475C13.3173 9.28251 12.9385 8.55847 12.6841 7.80204C11.8712 7.89962 10.918 8.13563 9.90823 8.5228C10.0941 8.65906 10.2968 8.80029 10.5143 8.94779C10.6447 9.03619 10.7823 9.12802 10.9237 9.22237L10.9237 9.22238L10.9238 9.2224C11.4359 9.56405 11.9974 9.93867 12.441 10.3021C12.7316 10.5403 13.0356 10.8232 13.2743 11.15C13.5123 11.4757 13.7503 11.9346 13.7503 12.4988C13.7503 13.6828 12.7705 14.3245 12.2104 14.6111C11.6886 14.8782 11.072 15.0756 10.4802 15.2235C10.7939 15.6196 10.8473 16.1841 10.572 16.643C10.3613 16.9942 10.0054 17.2046 9.62708 17.2435L16.8267 21.4002C17.1854 21.6073 17.6441 21.4844 17.8512 21.1257C18.0583 20.7669 18.517 20.644 18.8757 20.8511C19.2344 21.0582 19.3573 21.5169 19.1502 21.8757C18.5289 22.9518 17.1528 23.3205 16.0767 22.6992L1.78723 14.4492C1.42852 14.2421 1.30561 13.7834 1.51272 13.4247C1.71982 13.066 2.17852 12.9431 2.53723 13.1502L5.89865 15.0909C5.75691 14.8266 5.71114 14.5133 5.78488 14.2072C5.91277 13.6762 6.3705 13.2898 6.91532 13.2528L6.91561 13.2527L6.91668 13.2527L6.92546 13.252L6.96514 13.249C7.00109 13.2463 7.05552 13.2418 7.12575 13.2356C7.26638 13.2231 7.46953 13.2033 7.71413 13.1747C8.20683 13.117 8.85172 13.0251 9.48653 12.8881C10.1241 12.7505 10.6747 12.5833 11.0449 12.3991C10.992 12.3502 10.9297 12.2959 10.8565 12.2359C10.5171 11.9578 10.1001 11.6792 9.61049 11.3522L9.61047 11.3522L9.61023 11.352C9.45148 11.246 9.2851 11.1348 9.11125 11.017C8.45876 10.5745 7.70065 10.0355 7.1423 9.41632C6.58534 8.79872 6.02599 7.87173 6.28007 6.72853C6.47973 5.83012 7.0467 5.21305 7.67026 4.80386L4.05872 2.71874C3.7 2.51163 3.57709 2.05294 3.7842 1.69422ZM19.2501 2.74988C17.8694 2.74985 16.7501 3.86914 16.7501 5.24988C16.7502 6.63058 17.8694 7.74985 19.2501 7.74988C20.6309 7.74991 21.7502 6.63061 21.7501 5.24988C21.7501 3.86919 20.6308 2.74991 19.2501 2.74988ZM11.2795 12.6606L11.2813 12.664C11.2813 12.664 11.2812 12.6637 11.2809 12.6631C11.2806 12.6625 11.2801 12.6617 11.2795 12.6606ZM11.3238 12.2287C11.3326 12.217 11.3389 12.2115 11.3398 12.2116C11.3407 12.2118 11.3363 12.2176 11.3238 12.2287Z" fill="#26272B"/>
</svg>
