<svg width="24" height="24" viewBox="0 0 24 24" fill="none" xmlns="http://www.w3.org/2000/svg">
<path fill-rule="evenodd" clip-rule="evenodd" d="M15.871 1.67755C16.1672 1.05398 16.9129 0.788613 17.5364 1.08484C19.9523 2.23248 21.7244 4.52223 22.1512 7.25909C22.7703 7.33369 23.2501 7.86084 23.2501 8.50005C23.2501 9.135 22.7766 9.65937 22.1635 9.73946C21.7597 12.5126 19.9764 14.8366 17.5364 15.9957C16.9129 16.292 16.1672 16.0266 15.871 15.403C15.5748 14.7794 15.8401 14.0338 16.4637 13.7376C18.057 12.9807 19.2448 11.5149 19.6226 9.75005H14.2716C14.395 13.3326 15.0347 16.4426 15.7827 20.0793C15.8617 20.4633 15.9419 20.8532 16.0228 21.25H17.0001C17.6904 21.25 18.2501 21.8097 18.2501 22.5C18.2501 23.1904 17.6904 23.75 17.0001 23.75H15.0001C14.4041 23.75 13.891 23.3293 13.7743 22.7449C13.6298 22.0215 13.4842 21.3151 13.3409 20.62C12.7989 17.9901 12.2903 15.5224 12.0001 12.9107C11.7098 15.5224 11.2012 17.9901 10.6592 20.62C10.5159 21.3151 10.3704 22.0215 10.2258 22.7449C10.1091 23.3293 9.59601 23.75 9.00006 23.75H7.00006C6.3097 23.75 5.75006 23.1904 5.75006 22.5C5.75006 21.8097 6.3097 21.25 7.00006 21.25H7.97731C8.05822 20.8532 8.1384 20.4633 8.21738 20.0793C8.96539 16.4426 9.60507 13.3326 9.72856 9.75005H5.94945C4.74348 9.75005 3.55051 9.50567 2.89852 8.61151C2.17707 7.62208 2.55647 6.51165 2.93343 5.8682C3.3424 5.17009 3.99287 4.54035 4.67572 4.08504C5.34218 3.64065 6.20901 3.25005 7.08954 3.25005C7.77989 3.25005 8.33954 3.80969 8.33954 4.50005C8.33954 5.1904 7.77989 5.75005 7.08954 5.75005C6.90001 5.75005 6.52097 5.85944 6.06263 6.16506C5.62067 6.45975 5.26738 6.83001 5.09052 7.1319C5.08417 7.14274 5.07821 7.15316 5.07261 7.16315C5.24969 7.20946 5.53045 7.25005 5.94945 7.25005H19.6048C19.2085 5.5212 18.0327 4.08836 16.4637 3.34299C15.8401 3.04676 15.5748 2.30112 15.871 1.67755ZM9.50004 3.75013C9.50006 2.36944 10.6193 1.25016 12 1.25013C13.3808 1.2501 14.5001 2.3694 14.5 3.75013C14.5 5.13082 13.3807 6.2501 12 6.25013C10.6193 6.25016 9.50001 5.13086 9.50004 3.75013Z" fill="#26272B"/>
</svg>
