<svg width="24" height="24" viewBox="0 0 24 24" fill="none" xmlns="http://www.w3.org/2000/svg">
<path fill-rule="evenodd" clip-rule="evenodd" d="M12.1404 0.802802C12.8016 0.60443 13.4985 0.979659 13.6969 1.6409C14.3784 3.91264 14.0309 5.75678 13.2575 7.19365C15.0339 6.23592 16.4032 4.92358 16.7798 3.22892C16.9295 2.55501 17.5972 2.13009 18.2712 2.27985C18.9451 2.42961 19.37 3.09733 19.2202 3.77125C18.6995 6.1147 17.0609 7.76833 15.2996 8.89217C16.8442 9.66262 18.1233 10.7138 19.06 12.2126C20.3634 14.2981 20.8907 17.0748 20.8033 20.7501H21.5C22.1904 20.7501 22.75 21.3097 22.75 22.0001C22.75 22.6904 22.1904 23.2501 21.5 23.2501H19.5C19.1557 23.2501 18.8267 23.1081 18.5905 22.8576C18.3544 22.6071 18.2319 22.2704 18.2522 21.9267C18.4968 17.768 17.9845 15.2088 16.94 13.5376C16.3842 12.6483 15.6366 11.9465 14.647 11.377C15.2925 12.1023 15.8121 13.0434 16.0939 14.2548C16.4847 15.9351 16.4002 18.0576 15.681 20.7501H15.9996C16.6899 20.7501 17.2496 21.3097 17.2496 22.0001C17.2496 22.6904 16.6899 23.2501 15.9996 23.2501H13.9994C13.5976 23.2501 13.2202 23.0569 12.9853 22.731C12.7504 22.405 12.6865 21.9859 12.8135 21.6048C13.9 18.3458 13.9814 16.2078 13.6589 14.8211C13.3493 13.4903 12.6475 12.7575 11.8737 12.3054C11.0537 11.8264 10.1111 11.6413 9.34251 11.5407C9.24982 11.5286 9.1415 11.5159 9.02896 11.5028C8.7773 11.4734 8.50459 11.4415 8.33864 11.4076C8.2641 11.3924 8.1412 11.3644 8.00997 11.3117L8.00819 11.3109C7.92671 11.2782 7.57429 11.1366 7.34567 10.7517C7.20723 10.5187 7.13949 10.2368 7.17384 9.94437C7.20545 9.67529 7.31394 9.47519 7.3973 9.3543C7.54816 9.13552 7.73407 9.00797 7.80603 8.96C7.9239 8.88143 8.05535 8.79816 8.19674 8.70859C8.87761 8.2773 9.78919 7.69986 10.5263 6.79635C11.3462 5.79134 11.9165 4.40646 11.3023 2.35927C11.1039 1.69803 11.4792 1.00117 12.1404 0.802802ZM2.75 5.75009C2.75 4.36937 3.86929 3.25008 5.25 3.25008C6.63071 3.25008 7.75 4.36937 7.75 5.75009C7.75 7.1308 6.63071 8.25009 5.25 8.25009C3.86929 8.25009 2.75 7.1308 2.75 5.75009Z" fill="#26272B"/>
</svg>
