<svg width="24" height="24" viewBox="0 0 24 24" fill="none" xmlns="http://www.w3.org/2000/svg">
<g clip-path="url(#clip0_140_4060)">
<path fill-rule="evenodd" clip-rule="evenodd" d="M3.74417 14.1891L5.03847 15.4834L13.0231 5.27295C13.0092 4.55688 12.7133 3.71292 11.8233 2.82297C9.34713 0.346855 7.38092 2.62254 7.38092 2.62254L3.74417 14.1891ZM2.98015 15.5464C1.13154 17.707 1.166 19.7839 2.61083 21.2295C4.05568 22.6751 6.09034 22.6663 8.24456 20.8107L2.98015 15.5464ZM9.60111 20.0459L21.1692 16.4113C21.1692 16.4113 23.4923 14.4919 21.0161 12.0158C20.0947 11.0944 19.2227 10.8098 18.4908 10.8156L8.35566 18.8005L9.60111 20.0459ZM17.5193 9.67136C17.5347 9.03217 17.2677 8.26737 16.4199 7.41959C15.5448 6.54444 14.758 6.28817 14.1065 6.32252L6.10706 16.5519L7.28754 17.7324L17.5193 9.67136Z" fill="#26272B"/>
</g>
<defs>
<clipPath id="clip0_140_4060">
<rect width="24" height="24" fill="white"/>
</clipPath>
</defs>
</svg>
