<svg width="24" height="24" viewBox="0 0 24 24" fill="none" xmlns="http://www.w3.org/2000/svg">
<g clip-path="url(#clip0_140_4199)">
<path fill-rule="evenodd" clip-rule="evenodd" d="M22.304 0.787404C22.9737 0.954909 23.3809 1.63362 23.2134 2.30334L22.2129 6.30334C22.0454 6.97307 21.3667 7.3802 20.697 7.2127C20.0273 7.04519 19.6201 6.36649 19.7876 5.69676L19.9219 5.15995C19.7182 5.14283 19.4871 5.12384 19.2334 5.10369C19.1333 6.92215 18.5872 8.99275 17.5757 10.6998C16.8052 12 15.7012 13.1796 14.2502 13.7972L14.2502 16.1869C14.7063 15.8612 15.1798 15.564 15.6415 15.3132C16.134 15.0456 16.6405 14.8158 17.1215 14.662C17.5729 14.5176 18.1307 14.3974 18.6715 14.4791C18.9589 14.5225 19.294 14.6311 19.5941 14.8746C19.9069 15.1285 20.1028 15.4655 20.1932 15.8256C20.3552 16.4707 20.1718 17.143 19.9417 17.7033C19.6176 18.4921 19.0119 19.4954 18.0804 20.7521C18.7334 20.7934 19.2503 21.3361 19.2503 21.9996C19.2503 22.6899 18.6907 23.2496 18.0003 23.2496H15.4999C15.0149 23.2496 14.5736 22.969 14.3679 22.5297C14.1622 22.0905 14.2291 21.5719 14.5397 21.1993C16.0788 19.3525 16.9584 18.0702 17.4034 17.2285C17.2264 17.3068 17.0357 17.4009 16.8349 17.5099C16.035 17.9445 15.1867 18.5565 14.5553 19.1678C13.9135 19.789 13.0198 20.2492 12.0002 20.2492C10.9805 20.2492 10.0869 19.7891 9.44512 19.1678C8.81367 18.5566 7.96533 17.9445 7.16543 17.51C6.96458 17.4008 6.77377 17.3068 6.5967 17.2284C7.04162 18.0701 7.92111 19.3525 9.46018 21.1993C9.77069 21.5719 9.83762 22.0905 9.6319 22.5298C9.42617 22.969 8.98493 23.2496 8.49991 23.2496H6.0003C5.30994 23.2496 4.7503 22.6899 4.7503 21.9996C4.7503 21.3363 5.26684 20.7937 5.91958 20.7521C4.98812 19.4954 4.3825 18.4921 4.05851 17.7032C3.82835 17.1429 3.64506 16.4706 3.80708 15.8255C3.89751 15.4654 4.09344 15.1284 4.4063 14.8746C4.70636 14.6311 5.04149 14.5225 5.32884 14.4791C5.86961 14.3974 6.4274 14.5177 6.87879 14.662C7.35989 14.8158 7.86636 15.0457 8.35882 15.3132C8.82052 15.564 9.29405 15.8612 9.75016 16.1869L9.75017 13.7971C8.29927 13.1794 7.19542 11.9999 6.42496 10.6998C5.41337 8.99276 4.86733 6.92215 4.76719 5.10369C4.51353 5.12384 4.28244 5.14283 4.07874 5.15995L4.21297 5.69688C4.38041 6.36663 3.97321 7.04529 3.30347 7.21273C2.63372 7.38017 1.95505 6.97296 1.78762 6.30322L0.787618 2.30322C0.620182 1.63348 1.02738 0.954809 1.69713 0.787374C2.36687 0.619938 3.04554 1.02714 3.21297 1.69688L3.46459 2.70334C3.55925 2.6951 3.66424 2.68607 3.77863 2.67639C4.33682 2.62911 5.11973 2.56611 6.01984 2.5031C7.81316 2.37756 10.0981 2.25005 12.0003 2.25005C13.9025 2.25005 16.1874 2.37756 17.9808 2.5031C18.8809 2.56611 19.6638 2.62911 20.222 2.67639C20.3365 2.68608 20.4416 2.69512 20.5363 2.70337L20.7881 1.69676C20.9556 1.02703 21.6343 0.6199 22.304 0.787404ZM7.26124 4.92636C7.33492 6.38756 7.77988 8.08238 8.57569 9.42529C9.44704 10.8957 10.6029 11.7501 12.0003 11.7501C13.3978 11.7501 14.5536 10.8957 15.4249 9.4253C16.2207 8.08239 16.6657 6.38757 16.7394 4.92636C15.1923 4.83001 13.465 4.75005 12.0003 4.75005C10.5356 4.75005 8.80834 4.83001 7.26124 4.92636ZM9.50036 8.25005C9.50039 6.86936 10.6197 5.75008 12.0004 5.75005C13.3811 5.75002 14.5004 6.86932 14.5004 8.25005C14.5003 9.63074 13.381 10.75 12.0004 10.7501C10.6196 10.7501 9.50033 9.63078 9.50036 8.25005Z" fill="#26272B"/>
</g>
<defs>
<clipPath id="clip0_140_4199">
<rect width="24" height="24" fill="white"/>
</clipPath>
</defs>
</svg>
