<svg width="24" height="24" viewBox="0 0 24 24" fill="none" xmlns="http://www.w3.org/2000/svg">
<g clip-path="url(#clip0_140_4068)">
<path fill-rule="evenodd" clip-rule="evenodd" d="M11.3325 1.5216C8.87192 1.67739 6.45577 2.69548 4.57538 4.57587C2.69499 6.45625 1.67691 8.8724 1.52111 11.3329C2.58742 11.3995 3.66306 11.2822 4.69649 10.9811L4.55488 10.4146C4.45442 10.0128 4.69874 9.60558 5.10058 9.50511C5.50243 9.40465 5.90963 9.64897 6.01009 10.0508L6.10759 10.4408C6.80814 10.1042 7.47507 9.67421 8.08972 9.15087L7.58058 8.64173C7.28769 8.34884 7.28769 7.87396 7.58058 7.58107C7.87348 7.28818 8.34835 7.28818 8.64124 7.58107L9.15038 8.09021C9.67373 7.47556 10.1037 6.80863 10.4403 6.10808L10.0503 6.01058C9.64849 5.91012 9.40416 5.50292 9.50463 5.10107C9.60509 4.69923 10.0123 4.4549 10.4141 4.55537L10.9806 4.69697C11.2817 3.66354 11.399 2.58791 11.3325 1.5216ZM5.06059 12.4375L5.26199 13.243C5.36245 13.6449 5.76965 13.8892 6.17149 13.7888C6.57334 13.6883 6.81766 13.2811 6.7172 12.8792L6.47802 11.9225C7.43 11.4984 8.33298 10.9291 9.15336 10.2145L9.7019 10.7631C9.9948 11.0559 10.4697 11.0559 10.7626 10.7631C11.0555 10.4702 11.0555 9.99528 10.7626 9.70239L10.214 9.15385C10.9286 8.33346 11.498 7.43049 11.922 6.4785L12.8788 6.71769C13.2806 6.81815 13.6878 6.57383 13.7883 6.17198C13.8887 5.77014 13.6444 5.36293 13.2426 5.26247L12.437 5.06108C12.765 3.91176 12.8979 2.7185 12.8356 1.53359C15.2379 1.72422 17.5871 2.73831 19.4246 4.57587C21.2622 6.41342 22.2763 8.76261 22.4669 11.1649C21.282 11.1026 20.0887 11.2355 18.9394 11.5635L18.738 10.7579C18.6376 10.3561 18.2304 10.1118 17.8285 10.2122C17.4267 10.3127 17.1823 10.7199 17.2828 11.1217L17.522 12.0785C16.57 12.5025 15.667 13.0719 14.8466 13.7865L14.2981 13.2379C14.0052 12.945 13.5303 12.945 13.2374 13.2379C12.9445 13.5308 12.9445 14.0057 13.2374 14.2986L13.786 14.8471C13.0714 15.6675 12.502 16.5705 12.078 17.5225L11.1212 17.2833C10.7194 17.1828 10.3122 17.4271 10.2117 17.829C10.1113 18.2308 10.3556 18.638 10.7574 18.7385L11.563 18.9399C11.235 20.0892 11.1021 21.2825 11.1644 22.4674C8.76212 22.2768 6.41293 21.2627 4.57538 19.4251C2.73782 17.5876 1.72373 15.2384 1.5331 12.8361C2.71802 12.8983 3.91127 12.7655 5.06059 12.4375ZM13.5859 19.4456L13.0194 19.304C12.7183 20.3374 12.601 21.4131 12.6675 22.4794C15.1281 22.3236 17.5442 21.3055 19.4246 19.4251C21.305 17.5447 22.3231 15.1286 22.4789 12.668C21.4126 12.6015 20.3369 12.7188 19.3035 13.0199L19.4451 13.5864C19.5456 13.9882 19.3013 14.3954 18.8994 14.4959C18.4976 14.5963 18.0904 14.352 17.9899 13.9502L17.8924 13.5602C17.1919 13.8968 16.5249 14.3268 15.9103 14.8501L16.4194 15.3592C16.7123 15.6521 16.7123 16.127 16.4194 16.4199C16.1265 16.7128 15.6517 16.7128 15.3588 16.4199L14.8496 15.9108C14.3263 16.5254 13.8963 17.1923 13.5597 17.8929L13.9497 17.9904C14.3515 18.0909 14.5958 18.4981 14.4954 18.8999C14.3949 19.3018 13.9877 19.5461 13.5859 19.4456Z" fill="#26272B"/>
</g>
<defs>
<clipPath id="clip0_140_4068">
<rect width="24" height="24" fill="white"/>
</clipPath>
</defs>
</svg>
