<svg width="24" height="24" viewBox="0 0 24 24" fill="none" xmlns="http://www.w3.org/2000/svg">
<path fill-rule="evenodd" clip-rule="evenodd" d="M7.8844 18.5594L10.2808 15.3364L6.52706 13.1692L6.07523 14.1979L4.99027 16.8519C5.49566 16.9572 6.01269 17.1505 6.53131 17.4499C7.08293 17.7684 7.52971 18.1454 7.8844 18.5594ZM6.952 19.8134C6.67607 19.4098 6.2922 19.044 5.78131 18.749C5.31644 18.4806 4.85334 18.3326 4.4064 18.2801L4.40611 18.2809C3.11442 18.1294 1.95765 18.7758 1.28273 19.619C1.11017 19.8346 1.19425 20.1428 1.4334 20.2808L6.62955 23.2808C6.8687 23.4189 7.17765 23.3376 7.27807 23.0804C7.65751 22.1085 7.65301 20.839 6.95181 19.8137L6.952 19.8134ZM17.182 6.05508L11.1819 14.1246L7.13391 11.7875L11.1834 2.56772C12.0197 0.663592 14.3248 -0.0917898 16.1259 0.94806C17.9342 1.99211 18.4279 4.37943 17.182 6.05508ZM22.0002 18.5C22.0002 20.433 20.4332 22 18.5002 22C16.5672 22 15.0002 20.433 15.0002 18.5C15.0002 16.567 16.5672 15 18.5002 15C20.4332 15 22.0002 16.567 22.0002 18.5Z" fill="#26272B"/>
</svg>
