<svg width="24" height="24" viewBox="0 0 24 24" fill="none" xmlns="http://www.w3.org/2000/svg">
<path d="M5.18477 12.7421C5.24366 1.90943 12.2711 -0.319412 16.1484 1.91913C19.1955 3.6784 20.3076 5.73229 20.1697 7.37248C18.892 7.21449 17.6661 7.79021 17.0788 8.80747C16.5469 9.72871 16.518 10.8025 16.9043 11.7088C17.0667 12.0898 17.5073 12.267 17.8883 12.1046C18.2694 11.9422 18.4466 11.5016 18.2842 11.1206C18.0749 10.6296 18.0918 10.0529 18.3778 9.55747C18.6953 9.00763 19.6315 8.58818 20.5882 9.03023C22.5357 10.2632 22.1339 12.5517 21.2416 14.0973C20.6495 15.1229 19.2107 15.862 17.6962 16.64C16.6992 17.1522 15.6693 17.6813 14.8267 18.32C14.8222 18.3192 14.8176 18.3183 14.8129 18.3174C14.6815 18.2925 14.4852 18.2522 14.2352 18.1916C13.7348 18.0704 13.0212 17.8686 12.1832 17.549C11.3963 17.2489 10.502 16.8457 9.57277 16.3092C8.11784 15.4692 6.98962 14.5405 6.2266 13.823C5.84558 13.4647 5.55706 13.1604 5.36585 12.9483C5.29 12.8642 5.22954 12.7946 5.18477 12.7421Z" fill="#26272B"/>
<path d="M4.4549 14.1732C4.65122 14.3819 4.89985 14.6344 5.19904 14.9157C6.02653 15.6939 7.24661 16.6983 8.82277 17.6083C9.83042 18.19 10.7982 18.6262 11.6487 18.9506C12.5543 19.296 13.3295 19.5156 13.882 19.6494C13.9159 19.6576 13.949 19.6655 13.9812 19.6731L12.4607 22.3067C11.9084 23.2633 10.6852 23.591 9.72865 23.0388L3.66653 19.5388C2.70994 18.9865 2.38196 17.7637 2.93423 16.8071L4.4549 14.1732Z" fill="#26272B"/>
</svg>
