<svg width="24" height="24" viewBox="0 0 24 24" fill="none" xmlns="http://www.w3.org/2000/svg">
<path fill-rule="evenodd" clip-rule="evenodd" d="M19.4498 10.9139C19.2419 11.122 18.9929 11.2796 18.7218 11.3788C18.7405 11.5833 18.75 11.7906 18.75 12C18.75 15.7279 15.7279 18.75 12 18.75C8.27208 18.75 5.25 15.7279 5.25 12C5.25 8.27208 8.27208 5.25 12 5.25C12.2094 5.25 12.4165 5.25954 12.6211 5.27819C12.72 5.00761 12.8771 4.75896 13.0846 4.55123L15.5265 2.10687C14.4243 1.71395 13.2371 1.5 12 1.5C6.20101 1.5 1.5 6.20101 1.5 12C1.5 17.799 6.20101 22.5 12 22.5C17.799 22.5 22.5 17.799 22.5 12C22.5 10.7614 22.2855 9.57288 21.8917 8.46957L19.4498 10.9139ZM12.4997 7.96496L12.4996 6.77346C12.3352 6.75794 12.1685 6.75 12 6.75C9.1005 6.75 6.75 9.1005 6.75 12C6.75 14.8995 9.1005 17.25 12 17.25C14.8995 17.25 17.25 14.8995 17.25 12C17.25 11.8315 17.2421 11.6648 17.2265 11.5004L16.0355 11.5003L13.7679 13.7682C12.7917 14.7445 11.2088 14.7447 10.2324 13.7684C9.25598 12.7922 9.25586 11.2093 10.2321 10.2329L12.4997 7.96496ZM15.4146 9.99977L18.0347 9.99997C18.1673 9.99998 18.2945 9.94731 18.3882 9.85354L22.3322 5.91C22.644 5.59824 22.4289 5.06486 21.9881 5.05652L18.9995 4.99997L18.943 2.01126C18.9346 1.57044 18.4013 1.3554 18.0895 1.66716L14.1456 5.61088C14.0518 5.70466 13.9991 5.83185 13.9991 5.96448L13.9993 8.58661L11.2928 11.2935C10.9023 11.684 10.9024 12.3172 11.2929 12.7077C11.6835 13.0982 12.3167 13.0981 12.7072 12.7076L15.4146 9.99977Z" fill="#26272B"/>
</svg>
