<svg width="24" height="24" viewBox="0 0 24 24" fill="none" xmlns="http://www.w3.org/2000/svg">
<g clip-path="url(#clip0_140_4032)">
<path fill-rule="evenodd" clip-rule="evenodd" d="M19.4242 1.74614C18.6432 0.965094 17.3769 0.965095 16.5958 1.74614L16.2423 2.09974L21.8992 7.75659L22.2527 7.403C23.0337 6.62195 23.0337 5.35562 22.2527 4.57457L19.4242 1.74614ZM11.2926 2.09963C12.069 1.32325 13.3248 1.31861 14.1069 2.08569L21.9131 9.89188C22.6802 10.674 22.6756 11.9299 21.8992 12.7062C21.1181 13.4873 19.8518 13.4873 19.0708 12.7062L16.9494 10.5849L16.9494 10.585L13.4138 7.04944L13.4139 7.04938L11.2926 4.92806C10.5115 4.14701 10.5115 2.88068 11.2926 2.09963ZM12.3532 8.1101L8.11054 12.3527L11.6461 15.8883L15.8887 11.6456L12.3532 8.1101ZM2.1002 11.292C2.87659 10.5156 4.13249 10.511 4.9146 11.2781L12.7207 19.0842C13.4878 19.8663 13.4832 21.1222 12.7068 21.8986C11.9257 22.6797 10.6594 22.6797 9.87837 21.8986L8.81792 20.8382L8.81786 20.8382L3.161 15.1814L3.16107 15.1813L2.10019 14.1204C1.31915 13.3394 1.31915 12.0731 2.1002 11.292ZM2.10034 16.242L1.74719 16.5952C0.966138 17.3762 0.966139 18.6426 1.74719 19.4236L4.57561 22.2521C5.35666 23.0331 6.62299 23.0331 7.40404 22.2521L7.7572 21.8989L2.10034 16.242Z" fill="#26272B"/>
</g>
<defs>
<clipPath id="clip0_140_4032">
<rect width="24" height="24" fill="white"/>
</clipPath>
</defs>
</svg>
