<svg width="24" height="24" viewBox="0 0 24 24" fill="none" xmlns="http://www.w3.org/2000/svg">
<path fill-rule="evenodd" clip-rule="evenodd" d="M1.07316 1.32535C1.72195 1.08943 2.43916 1.42413 2.67508 2.07292C3.12254 3.30344 3.6092 3.93764 4.05057 4.30544C4.4935 4.67455 4.99788 4.86726 5.67851 5.03742C5.85881 5.08249 6.05341 5.125 6.25966 5.17004C7.57941 5.45829 9.37572 5.85063 10.9494 7.68661C11.0666 7.82327 11.1528 7.98362 11.2022 8.15669C11.3905 8.81564 11.6532 9.10587 11.8648 9.25129C12.0905 9.4065 12.4093 9.5001 12.8753 9.5001C13.0007 9.5001 13.1308 9.49332 13.2653 9.48061C12.8241 9.28758 12.5159 8.84724 12.5159 8.3349C12.5159 7.64455 13.0755 7.0849 13.7659 7.0849C13.6257 7.0849 15.7714 6.84244 17.064 8.4647L21.5676 6.82548C22.2163 6.58936 22.9336 6.92384 23.1697 7.57256C23.4058 8.22128 23.0714 8.93858 22.4226 9.17471L17.9149 10.8155C17.9329 11.6582 17.651 12.3704 17.3129 12.8969C17.0734 13.2699 16.8051 13.5549 16.5909 13.7493C16.4831 13.8471 16.3824 13.928 16.2964 13.9906C16.2547 14.021 16.2078 14.0534 16.1589 14.0836C16.1365 14.0974 16.098 14.1206 16.0504 14.1447C16.0281 14.156 15.9844 14.1775 15.9277 14.1993C15.9274 14.1994 15.9268 14.1997 15.9259 14.2C15.9044 14.2087 15.7187 14.2834 15.476 14.2834C14.7856 14.2834 14.226 13.7237 14.226 13.0334C14.226 12.573 14.4749 12.1707 14.8455 11.9538C14.8611 11.9414 14.8834 11.9228 14.9106 11.8981C14.9729 11.8416 15.0472 11.7653 15.1193 11.6729C15.1078 11.6758 15.0963 11.6786 15.0848 11.6815C14.4252 11.8464 13.6526 12.0001 12.8753 12.0001C12.0913 12.0001 11.2227 11.8437 10.4484 11.3114C10.3492 11.2432 10.2538 11.1704 10.1622 11.093C9.97971 11.5103 9.78153 11.9581 9.5448 12.4492C10.5231 13.1053 11.3112 13.978 11.7747 15.3072C12.2519 16.6752 12.3474 18.4303 12.1422 20.7501H12.7503C13.4406 20.7501 14.0003 21.3097 14.0003 22.0001C14.0003 22.6905 13.4406 23.2501 12.7503 23.2501H10.7502C10.3917 23.2501 10.0504 23.0961 9.81312 22.8273C9.57584 22.5585 9.46541 22.2008 9.50991 21.845C9.88083 18.8792 9.78245 17.1864 9.41419 16.1305C9.19498 15.502 8.86339 15.0515 8.34542 14.6615C7.41473 16.2032 6.07881 18.0954 3.98694 20.5956L4.55936 20.8818C5.17683 21.1905 5.42711 21.9414 5.11837 22.5589C4.80964 23.1763 4.0588 23.4266 3.44132 23.1179L1.44132 22.1179C1.09596 21.9452 0.849794 21.6226 0.7744 21.2439C0.699007 20.8652 0.802855 20.4729 1.05574 20.1812C3.74391 17.0795 5.27929 14.9182 6.26235 13.2743C6.01802 13.0193 5.8183 12.731 5.67264 12.4063C5.33525 11.6544 5.36811 10.8859 5.54017 10.219C5.74978 9.4067 6.21073 8.59066 6.70553 7.85522C6.42115 7.77606 6.12259 7.70797 5.80448 7.63541C5.57156 7.58229 5.32816 7.52677 5.07217 7.46277C4.2528 7.25793 3.31968 6.95064 2.45011 6.226C1.57898 5.50005 0.878137 4.44675 0.325598 2.92727C0.0896741 2.27848 0.424369 1.56128 1.07316 1.32535ZM9.75034 4.2501C9.75037 2.8694 10.8696 1.75012 12.2503 1.7501C13.6311 1.75007 14.7504 2.86936 14.7503 4.25009C14.7503 5.63078 13.631 6.75007 12.2503 6.7501C10.8696 6.75012 9.75031 5.63083 9.75034 4.2501Z" fill="#26272B"/>
</svg>
