<svg width="24" height="24" viewBox="0 0 24 24" fill="none" xmlns="http://www.w3.org/2000/svg">
<path fill-rule="evenodd" clip-rule="evenodd" d="M9.07218 1.35683C8.717 0.76485 7.94917 0.572893 7.3572 0.928079C6.76522 1.28326 6.57326 2.05109 6.92845 2.64306C8.14175 4.66524 9.49665 6.55746 11.2315 7.98933C10.9168 8.1511 10.638 8.30987 10.3958 8.46706C10.0506 8.69111 9.72262 8.94811 9.46896 9.25251C9.20984 9.56347 8.97576 9.98972 8.9647 10.5177C8.95853 10.8119 9.02283 11.0751 9.12326 11.3039C8.70348 11.508 8.31298 11.688 7.95045 11.8443C7.16347 12.1838 6.54091 12.3976 6.05863 12.5103C5.61127 12.6148 5.35829 12.6143 5.23853 12.5972C5.23507 12.583 5.23145 12.5659 5.22795 12.5457C5.21289 12.4587 5.20306 12.3306 5.21023 12.1515C5.24094 11.3837 5.5534 10.1678 6.17747 8.42037C6.29613 8.08811 6.26886 7.72118 6.10239 7.41012C5.93591 7.09906 5.64574 6.87284 5.30347 6.78727L3.30347 6.28727C2.63372 6.11983 1.95505 6.52703 1.78762 7.19677C1.62018 7.86652 2.02738 8.54519 2.69713 8.71262L3.38175 8.88378C2.99826 10.0967 2.74747 11.1705 2.71223 12.0515C2.68832 12.6492 2.75546 13.3015 3.07297 13.8723C3.42365 14.5027 3.99731 14.8872 4.67222 15.0339C5.29003 15.1682 5.9626 15.1 6.62737 14.9447C7.30717 14.7859 8.07911 14.5114 8.94052 14.1399C9.61862 13.8475 10.3724 13.4859 11.2057 13.0554C11.6043 13.2537 12.0449 13.4505 12.5079 13.6489C13.2966 13.9869 13.596 14.272 13.6946 14.4199C13.7372 14.4837 13.7764 14.5452 13.6966 14.7714C13.5928 15.0655 13.3208 15.4951 12.7806 16.0865C12.2543 16.6626 11.55 17.311 10.6868 18.0509C10.3318 18.3552 10.1763 18.8321 10.2837 19.2872C10.3912 19.7422 10.7436 20.0993 11.1972 20.2126L13.1976 20.7126C13.8674 20.88 14.546 20.4728 14.7134 19.8031C14.8596 19.2183 14.5677 18.6268 14.0455 18.3747C14.2516 18.171 14.4457 17.9704 14.6263 17.7727C15.2422 17.0985 15.7828 16.3719 16.054 15.6035C16.3492 14.7672 16.3259 13.8599 15.7747 13.0331C15.3592 12.4098 14.7108 11.9381 13.9448 11.559C14.4839 11.2515 15.0474 10.9239 15.6359 10.5761C15.7582 10.5039 15.8636 10.4141 15.9509 10.3118C17.7679 10.7122 19.8416 10.7064 22.2455 10.2257C22.9224 10.0903 23.3614 9.43175 23.226 8.7548C23.0907 8.07785 22.4321 7.63883 21.7552 7.77422C18.2446 8.47634 15.8246 7.98676 13.9559 6.86558C12.038 5.71484 10.5426 3.80757 9.07218 1.35683ZM17.2503 1.74994C15.8696 1.74992 14.7503 2.86921 14.7503 4.24994C14.7503 5.63064 15.8696 6.74992 17.2503 6.74994C18.6311 6.74997 19.7503 5.63067 19.7503 4.24994C19.7503 2.86926 18.631 1.74997 17.2503 1.74994ZM3.19441 3.7755C2.79431 3.66829 2.38306 3.90573 2.27585 4.30583C2.16864 4.70593 2.40608 5.11718 2.80618 5.22439L6.18692 6.13026C6.58702 6.23746 6.99827 6.00003 7.10548 5.59993C7.21269 5.19983 6.97525 4.78857 6.57515 4.68137L3.19441 3.7755ZM10.1944 20.7755C9.79431 20.6683 9.38306 20.9057 9.27585 21.3058C9.16864 21.7059 9.40608 22.1172 9.80618 22.2244L13.1869 23.1303C13.587 23.2375 13.9983 23 14.1055 22.5999C14.2127 22.1998 13.9752 21.7886 13.5752 21.6814L10.1944 20.7755Z" fill="#26272B"/>
</svg>
