<svg width="24" height="24" viewBox="0 0 24 24" fill="none" xmlns="http://www.w3.org/2000/svg">
<g clip-path="url(#clip0_140_4269)">
<path fill-rule="evenodd" clip-rule="evenodd" d="M6.87097 0.816687C7.01264 0.427454 7.44302 0.226763 7.83225 0.368433L22.3939 5.66844C23.5616 6.09345 24.1637 7.3846 23.7387 8.5523C23.597 8.94153 23.1666 9.14222 22.7774 9.00055C22.3882 8.85888 22.1875 8.4285 22.3291 8.03927C22.4708 7.65003 22.2701 7.21965 21.8809 7.07798L18.5851 5.87842C18.7681 6.19823 18.8086 6.59552 18.6611 6.9642C18.5823 7.16133 18.4589 7.32732 18.3071 7.45523L18.8929 7.66844C20.0606 8.09345 20.6627 9.3846 20.2377 10.5523C20.096 10.9415 19.6656 11.1422 19.2764 11.0006C18.8872 10.8589 18.6865 10.4285 18.8282 10.0393C18.9698 9.65003 18.7691 9.21965 18.3799 9.07798L15.5417 8.04496C15.4729 8.2688 15.3988 8.50888 15.3193 8.76482C14.7942 10.4549 14.0349 12.8365 13.0413 15.7983C15.38 16.7548 17.2629 18.6403 19.0404 21.3065C19.4233 21.8809 19.2681 22.657 18.6937 23.0399C18.1193 23.4229 17.3432 23.2676 16.9603 22.6932C15.0397 19.8124 13.2633 18.3415 11.1922 17.8148C9.07165 17.2756 6.37146 17.6527 2.43925 19.1273C1.79285 19.3697 1.07233 19.0422 0.829929 18.3958C0.587526 17.7494 0.91503 17.0289 1.56143 16.7865C4.39167 15.7251 6.85018 15.1111 9.05399 15.0824C9.23985 14.5875 9.27611 13.9521 9.14306 13.1704C8.983 12.23 8.59859 11.2082 8.12557 10.2326C7.65655 9.26524 7.12454 8.39227 6.70651 7.75777C6.49843 7.44193 6.32083 7.18856 6.19665 7.01599C6.13462 6.92977 6.08607 6.86394 6.05389 6.82078L6.01831 6.7734L6.01044 6.76305L6.00956 6.76189L6.00928 6.76153C5.66617 6.31515 5.66381 5.69444 6.00358 5.24546C6.16716 5.02928 6.39062 4.87862 6.63672 4.80381L3.81825 3.77797C3.42901 3.6363 3.22832 3.20592 3.36999 2.81669C3.51166 2.42745 3.94204 2.22676 4.33128 2.36843L13.6241 5.75074C13.6766 5.5741 13.7173 5.4358 13.7461 5.33712L13.7863 5.19943L13.7961 5.1655L13.7984 5.15737L13.7989 5.15552L13.799 5.15515L13.7991 5.15511C13.8966 4.81538 14.1333 4.53281 14.4508 4.37736L14.4551 4.37523L7.31922 1.77797C6.92999 1.6363 6.7293 1.20592 6.87097 0.816687ZM10.4563 6.19404C10.7437 6.53566 10.8383 7.02052 10.6609 7.46399C10.5171 7.82346 10.2252 8.07939 9.88345 8.18963C10.0494 8.49297 10.215 8.81179 10.3751 9.14191C10.8514 10.1243 11.298 11.2476 11.5382 12.3869C12.1119 10.6334 12.5765 9.16701 12.9318 8.02312C13.0252 7.72251 13.1111 7.44418 13.1894 7.18878L10.4563 6.19404ZM10.0003 18.7058C8.61962 18.7058 7.50034 19.8251 7.50034 21.2058C7.50034 22.5865 8.61962 23.7058 10.0003 23.7058C11.381 23.7058 12.5003 22.5865 12.5003 21.2058C12.5003 19.8251 11.381 18.7058 10.0003 18.7058Z" fill="#26272B"/>
</g>
<defs>
<clipPath id="clip0_140_4269">
<rect width="24" height="24" fill="white"/>
</clipPath>
</defs>
</svg>
