<svg width="24" height="24" viewBox="0 0 24 24" fill="none" xmlns="http://www.w3.org/2000/svg">
<path fill-rule="evenodd" clip-rule="evenodd" d="M6.99981 15.9996C5.07288 14.8434 2.46391 15.9111 1.97644 18.1048L1.54066 20.0657C1.2631 21.3148 2.21257 22.4996 3.49206 22.4996H6.99981C8.94024 22.4996 10.4196 22.1922 11.3527 21.9183C11.7325 21.8068 12.0695 21.6114 12.3605 21.3579C12.1289 20.8705 11.9993 20.3253 11.9993 19.7499C11.9993 17.7286 13.5984 16.0808 15.6006 16.0028L18.4596 10.9345C18.4036 10.9181 18.3486 10.8947 18.2959 10.8643L14.8473 8.87341L11.0581 15.3992C11.0367 15.436 11.0167 15.4734 10.9967 15.5108C10.9804 15.5413 10.964 15.5719 10.9469 15.6021C10.7061 16.0282 9.60991 17.5657 6.99981 15.9996ZM13.5001 19.7263L13.4994 19.7276C13.5071 18.928 13.932 18.2281 14.5669 17.8352L14.5664 17.8361C14.9102 17.623 15.3157 17.5 15.75 17.5H20.25C21.4926 17.5 22.5 18.5074 22.5 19.75C22.5 20.9926 21.4926 22 20.25 22H15.75C14.5074 22 13.5 20.9926 13.5 19.75C13.5 19.7421 13.5 19.7342 13.5001 19.7263ZM15.6005 7.57622L19.0458 9.5652C19.0941 9.59307 19.1381 9.62551 19.1776 9.66165L20.752 6.8707C20.7116 6.85595 20.6719 6.83752 20.6334 6.81527L17.1949 4.83025L15.6005 7.57622ZM17.9481 3.53306L21.3833 5.51621C21.4174 5.53588 21.4494 5.55782 21.4791 5.58174L22.5226 3.73193C23.0632 2.77364 22.7282 1.55868 21.7729 1.0128L21.7243 0.985034C20.77 0.439694 19.5544 0.7667 19.0025 1.71725L17.9481 3.53306Z" fill="#26272B"/>
</svg>
