<svg width="24" height="24" viewBox="0 0 24 24" fill="none" xmlns="http://www.w3.org/2000/svg">
<g clip-path="url(#clip0_140_4217)">
<path fill-rule="evenodd" clip-rule="evenodd" d="M9.95625 0.0136622C10.6728 -0.230478 11.3802 -0.0901159 11.9567 0.242709C12.5332 0.575533 13.0084 1.11799 13.1553 1.86063C13.2965 2.5748 13.0941 3.27272 12.7468 3.87428C12.5723 4.17643 12.3448 4.42211 12.1013 4.6215C13.2309 5.37586 14.4459 6.34911 15.3503 7.52746C15.9951 8.36763 16.517 9.35678 16.7055 10.4832C16.7621 10.8219 16.7874 11.1659 16.7791 11.5142C17.7293 12.1092 18.6119 12.6783 19.3049 13.2162C19.9719 13.734 20.6996 14.3941 20.9893 15.2045C21.1557 15.6698 21.1827 16.1961 20.9761 16.7193C20.7817 17.2116 20.4273 17.5818 20.0525 17.8615C19.4974 18.2758 18.7194 18.6217 17.7545 18.9327C18.6954 18.8855 19.7479 18.8259 20.9214 18.7525C21.5588 18.7127 22.1144 19.1579 22.2281 19.7703C22.6269 19.8449 22.9817 20.1119 23.1511 20.5136C23.4193 21.1498 23.1211 21.8829 22.485 22.1511C21.7634 22.4553 19.2388 23.2501 12.4993 23.2501C5.7554 23.2501 3.23627 22.4504 2.52098 22.1541C1.8832 21.8899 1.58037 21.1586 1.8446 20.5208C2.10883 19.8831 2.84006 19.5802 3.47785 19.8445C3.71621 19.9432 5.26209 20.5121 9.63175 20.6941C9.62792 20.688 9.62413 20.6818 9.62036 20.6755C9.29914 20.1417 9.42877 19.5903 9.63693 19.2552C9.80196 18.9896 10.024 18.8267 10.1411 18.7476C10.4004 18.5722 10.7287 18.4288 11.026 18.313C11.345 18.1888 11.7203 18.062 12.1248 17.9349C13.0941 17.6305 14.3323 17.2941 15.5568 16.9614C15.7624 16.9055 15.9676 16.8498 16.1711 16.7943C16.452 16.7177 16.7053 16.6429 16.9332 16.5703C16.6849 16.3452 16.3836 16.1089 16.0769 15.8858C15.7777 15.6682 15.489 15.4745 15.2655 15.3294C14.749 15.9099 14.1378 16.3404 13.4603 16.6329C12.3846 17.0974 11.2172 17.1828 10.1169 17.0797C8.29284 16.9086 6.455 16.2004 5.05825 15.4856C5.14368 16.0345 5.2017 16.9427 4.74697 17.7303C4.39966 18.3319 3.89646 18.8562 3.20736 19.091C2.49078 19.3351 1.78337 19.1947 1.20691 18.8619C0.630437 18.5291 0.155175 17.9866 0.00831636 17.244C-0.13291 16.5298 0.0695342 15.8319 0.416842 15.2303C0.899344 14.3946 1.78808 13.9909 2.29663 13.8039C2.4668 13.7413 2.62853 13.691 2.77195 13.6512L8.22659 4.20345C8.18939 4.05931 8.15208 3.89411 8.1212 3.71544C8.02892 3.1815 7.93414 2.21 8.41664 1.37428C8.76395 0.772724 9.26715 0.248439 9.95625 0.0136622ZM9.95076 6.2171L5.957 13.1345C7.20637 13.8024 8.84383 14.4493 10.3503 14.5906C11.1785 14.6682 11.8941 14.5861 12.4693 14.3377C13.0181 14.1007 13.5102 13.6836 13.8815 12.9409C14.2693 12.1653 14.3397 11.493 14.2397 10.8958C14.1367 10.2801 13.8382 9.66352 13.367 9.04954C12.5021 7.9225 11.1766 6.95835 9.95076 6.2171ZM8.49952 11.2498C8.49954 9.86913 9.61881 8.74985 10.9995 8.74982C12.3802 8.74979 13.4995 9.86908 13.4995 11.2498C13.4995 12.6305 12.3802 13.7498 10.9995 13.7498C9.61878 13.7498 8.49949 12.6305 8.49952 11.2498Z" fill="#26272B"/>
</g>
<defs>
<clipPath id="clip0_140_4217">
<rect width="24" height="24" fill="white"/>
</clipPath>
</defs>
</svg>
