<svg width="24" height="24" viewBox="0 0 24 24" fill="none" xmlns="http://www.w3.org/2000/svg">
<path fill-rule="evenodd" clip-rule="evenodd" d="M7.65718 4.87886C7.66672 4.91202 7.68542 4.95446 7.71879 5.00035L8.82117 6.51612C7.84647 6.8427 6.93874 7.31533 6.12397 7.90802L5.29258 6.76487C4.33001 5.44133 4.31195 3.18256 6.26103 2.22191C7.51427 1.60421 9.4086 1.00049 12.0005 1.00049C14.5924 1.00049 16.4867 1.60421 17.74 2.22191C19.6891 3.18256 19.671 5.44133 18.7084 6.76487L17.8769 7.90824C17.0621 7.31553 16.1544 6.84286 15.1798 6.51624L16.2822 5.00035C16.3156 4.95446 16.3343 4.91201 16.3438 4.87886C15.4747 4.46244 14.0534 4.00049 12.0005 4.00049C9.94765 4.00049 8.52631 4.46244 7.65718 4.87886ZM16.8944 9.04967C16.928 9.07335 16.9614 9.09728 16.9946 9.12143L16.9946 9.12144C19.119 10.6667 20.5 13.172 20.5 16C20.5 18.2497 19.626 20.2953 18.1991 21.8157C17.8447 22.1933 17.3366 22.375 16.8187 22.375H7.18128C6.66341 22.375 6.15533 22.1933 5.80094 21.8157C4.37398 20.2953 3.5 18.2497 3.5 16C3.5 11.3056 7.30558 7.5 12 7.5C13.7304 7.5 15.3399 8.01704 16.6827 8.90506C16.754 8.95222 16.8246 9.00043 16.8944 9.04967ZM12 13.25C10.4812 13.25 9.25 14.4812 9.25 16C9.25 17.5188 10.4812 18.75 12 18.75C13.5188 18.75 14.75 17.5188 14.75 16C14.75 14.4812 13.5188 13.25 12 13.25ZM7.75 16C7.75 13.6528 9.65279 11.75 12 11.75C14.3472 11.75 16.25 13.6528 16.25 16C16.25 18.3472 14.3472 20.25 12 20.25C9.65279 20.25 7.75 18.3472 7.75 16Z" fill="#26272B"/>
</svg>
