<svg width="24" height="24" viewBox="0 0 24 24" fill="none" xmlns="http://www.w3.org/2000/svg">
<path d="M18.2591 17.9997H16.5002C16.6284 16.1678 17.3462 12.2165 16.8345 10.0004M16.8345 10.0004C16.5667 8.84044 15.962 8.15586 14.7596 8.49944C11.26 9.49941 11.286 10.3277 11.5005 11.0004M16.8345 10.0004C13.0005 12.0004 11.715 11.6731 11.5005 11.0004M11.5005 11.0004L2 15.0003C2 16.5003 2.75 17.5003 3.5 17.5003M22 6.75C22 7.44036 21.4404 8 20.75 8C20.0596 8 19.5 7.44036 19.5 6.75C19.5 6.05964 20.0596 5.5 20.75 5.5C21.4404 5.5 22 6.05964 22 6.75Z" stroke="#26272B" stroke-width="2.5" stroke-linecap="round" stroke-linejoin="round"/>
</svg>
