<svg width="24" height="24" viewBox="0 0 24 24" fill="none" xmlns="http://www.w3.org/2000/svg">
<path fill-rule="evenodd" clip-rule="evenodd" d="M4.51414 3.55644C4.3893 3.48435 4.21403 3.45511 3.99437 3.51397C3.7748 3.5728 3.63759 3.68576 3.56546 3.81071C3.5001 3.92393 3.40102 4.19752 3.5503 4.75462C3.70352 5.32643 4.00625 5.76214 4.3051 6.01563C4.53585 6.21136 4.68123 6.24006 4.72618 6.24544C4.76242 6.21831 4.87399 6.12076 4.97598 5.83584C5.10806 5.46687 5.15239 4.93814 4.99916 4.36629C4.84986 3.80908 4.62727 3.62175 4.51414 3.55644ZM5.76416 1.39138C6.56958 1.8564 7.13191 2.66657 7.41397 3.71924C7.69211 4.75726 7.64171 5.80683 7.32972 6.6784C7.16103 7.14966 6.887 7.63493 6.49499 8.0176L6.98148 9.83428C8.4572 9.92336 9.38806 9.72494 10.0611 9.44662C10.7352 9.16783 11.2031 8.80157 11.8114 8.3255C11.9653 8.20498 12.1283 8.07742 12.3059 7.94246C13.1679 7.28733 14.2109 6.6153 15.8339 6.32448C17.4135 6.04144 19.4402 6.1366 22.2767 6.78123C22.9499 6.93422 23.3716 7.60397 23.2186 8.27716C23.0656 8.95035 22.3959 9.37206 21.7227 9.21907C19.5667 8.72909 18.0677 8.6162 16.9788 8.69776C17.3734 9.35563 17.8369 10.2204 18.2768 11.2652C19.22 13.5053 20.0633 16.5948 19.8659 20.25L19.9994 20.25C20.6898 20.2499 21.2496 20.8094 21.2497 21.4997C21.2498 22.1901 20.6903 22.7499 19.9999 22.75L18.5 22.7503C18.1415 22.7504 17.8001 22.5964 17.5628 22.3276C17.3254 22.0588 17.215 21.7011 17.2594 21.3453C17.6609 18.1335 17.1126 15.3506 16.3536 13.2167C16.3543 13.9101 16.2289 14.5988 15.9943 15.2813C15.3967 17.02 14.0756 18.7472 12.3071 20.5457C12.5778 20.775 12.7497 21.1174 12.7497 21.5C12.7497 22.1903 12.1901 22.75 11.4997 22.75H9.49969C8.98327 22.75 8.52001 22.4324 8.33379 21.9507C8.14757 21.4691 8.27673 20.9225 8.65885 20.5751C11.4152 18.0693 13.0577 16.1337 13.6301 14.4686C13.8992 13.6857 13.9219 12.9852 13.7159 12.2949C13.5694 11.8038 13.2932 11.2721 12.8385 10.6924C12.3291 11.0702 11.7312 11.4613 11.0165 11.7569C9.73037 12.2887 8.12954 12.5094 5.85369 12.2418C5.34525 12.182 4.92467 11.8182 4.79224 11.3237L4.08013 8.6645C3.54943 8.52908 3.06959 8.24587 2.68795 7.92215C1.98201 7.32336 1.41361 6.43963 1.13548 5.40167C0.853424 4.349 0.935382 3.36621 1.40036 2.56078C1.85856 1.76708 2.601 1.29913 3.34732 1.09916C4.09354 0.899208 4.97046 0.93313 5.76416 1.39138ZM9.24978 3.5003C9.24981 2.11961 10.3691 1.00033 11.7498 1.0003C13.1305 1.00027 14.2498 2.11956 14.2498 3.5003C14.2498 4.88099 13.1305 6.00027 11.7498 6.0003C10.3691 6.00033 9.24976 4.88103 9.24978 3.5003Z" fill="#26272B"/>
</svg>
