<svg width="24" height="24" viewBox="0 0 24 24" fill="none" xmlns="http://www.w3.org/2000/svg">
<path fill-rule="evenodd" clip-rule="evenodd" d="M11.3821 1.44101C11.6908 0.82354 12.4417 0.573259 13.0591 0.881996L19.2902 3.99754C20.7978 4.75133 21.7501 6.2922 21.7501 7.97774V22C21.7501 22.6904 21.1905 23.25 20.5001 23.25C19.8097 23.25 19.2501 22.6904 19.2501 22V16.5178L18.384 17.3839C18.081 17.6869 17.6439 17.8136 17.2259 17.7196C16.8078 17.6256 16.4671 17.324 16.3229 16.9205C16.2596 16.7431 16.1984 16.5717 16.1393 16.4058C15.6049 14.9077 15.2352 13.8712 14.9186 13.1522C14.7588 12.7894 14.6356 12.5624 14.5414 12.4229C14.4575 12.4566 14.3322 12.5133 14.1544 12.6089C13.888 12.7521 13.5774 12.9383 13.1754 13.1794L13.1116 13.2176C12.6883 13.4714 12.1889 13.7695 11.6072 14.0927C11.4273 14.1927 11.2505 14.2872 11.077 14.3758C11.4159 15.6856 11.5897 16.889 11.1832 17.9041C10.7305 19.0343 9.72388 19.568 8.75744 19.9415C8.19942 20.1572 7.47433 20.38 6.65671 20.6313C6.53069 20.67 6.40247 20.7094 6.27232 20.7496L6.61808 21.4409C6.92688 22.0583 6.67668 22.8092 6.05924 23.118C5.4418 23.4268 4.69093 23.1766 4.38213 22.5592L3.38203 20.5595C3.2196 20.2347 3.20643 19.8554 3.34593 19.5201C3.48543 19.1849 3.76383 18.9268 4.1087 18.8132C4.87267 18.5614 5.51422 18.3654 6.06791 18.1963C6.78689 17.9766 7.35773 17.8023 7.85615 17.6096C8.70792 17.2804 8.82252 17.0742 8.86238 16.9747C8.93672 16.789 8.98432 16.347 8.70992 15.2145C8.64128 15.2241 8.57336 15.2318 8.50617 15.2376C8.03465 15.2783 7.55508 15.2301 7.10388 15.0356C6.64405 14.8374 6.29227 14.5209 6.03487 14.149C5.55861 13.4611 5.39929 12.572 5.32576 11.7796C5.25007 10.9638 5.25009 10.0094 5.25011 9.04233L5.25011 9.00003C5.25011 8.43551 5.62847 7.94105 6.17336 7.79349C7.56021 7.41791 8.5654 7.1213 9.32256 6.82195C10.0752 6.52439 10.4898 6.25869 10.7534 5.99359C11.2197 5.52468 11.4544 4.83586 11.6888 2.95133C11.2611 2.58719 11.1196 1.96591 11.3821 1.44101ZM14.0466 4.17083C13.9124 5.02597 13.7297 5.79297 13.4152 6.46827C13.9796 6.00005 14.3486 5.38125 14.6798 4.4874L14.0466 4.17083ZM16.9263 5.61066C16.3945 6.95024 15.6249 8.13513 14.1591 8.98389C13.0563 9.62244 11.6306 10.0268 9.76213 10.255C9.97168 10.8596 10.1635 11.4198 10.336 11.9389C10.3549 11.9285 10.3739 11.918 10.3931 11.9073C10.9363 11.6055 11.4057 11.3255 11.8261 11.0735C11.8548 11.0562 11.8834 11.0391 11.912 11.022C12.2909 10.7947 12.6503 10.5791 12.9708 10.4068C13.5544 10.0931 14.4994 9.62477 15.4808 10.0337C15.9592 10.233 16.2979 10.5818 16.5465 10.928C16.7932 11.2713 17.006 11.6894 17.2065 12.1447C17.4464 12.6893 17.7078 13.3808 18.012 14.2204L18.1162 14.1161C18.4242 13.8081 18.853 13.6945 19.2501 13.7751V7.97774C19.2501 7.23913 18.8328 6.56392 18.1722 6.23361L16.9263 5.61066ZM3.75011 4.25003C3.75011 2.86932 4.8694 1.75003 6.25011 1.75003C7.63082 1.75003 8.75011 2.86932 8.75011 4.25003C8.75011 5.63074 7.63082 6.75003 6.25011 6.75003C4.8694 6.75003 3.75011 5.63074 3.75011 4.25003Z" fill="#26272B"/>
</svg>
