<svg width="24" height="24" viewBox="0 0 24 24" fill="none" xmlns="http://www.w3.org/2000/svg">
<path fill-rule="evenodd" clip-rule="evenodd" d="M20.9991 3.00004C21.7303 3.73127 22.4157 6.20426 22.1251 9.20429C18.2668 8.79804 15.2011 5.73231 14.7948 1.874C17.7948 1.58343 20.2678 2.2688 20.9991 3.00004ZM13.3098 2.09414C13.8134 6.60473 17.3944 10.1857 21.905 10.6893C21.4188 13.1152 20.26 15.7391 17.9991 18C15.7381 20.261 13.1142 21.4198 10.6884 21.9059C10.1847 17.3953 6.60375 13.8144 2.09316 13.3107C2.57933 10.8849 3.73811 8.26099 5.99906 6.00004C8.26001 3.73909 10.8839 2.58031 13.3098 2.09414ZM9.20332 22.1261C6.20328 22.4166 3.7303 21.7313 2.99906 21C2.26782 20.2688 1.58245 17.7958 1.87302 14.7958C5.73133 15.202 8.79706 18.2678 9.20332 22.1261ZM15.0294 8.96971C15.3223 9.2626 15.3223 9.73747 15.0294 10.0304L14.3097 10.75L15.5294 11.9697C15.8223 12.2626 15.8223 12.7375 15.5294 13.0304C15.2365 13.3233 14.7616 13.3233 14.4687 13.0304L13.2491 11.8107L11.8097 13.25L13.0294 14.4697C13.3223 14.7626 13.3223 15.2375 13.0294 15.5304C12.7365 15.8233 12.2616 15.8233 11.9687 15.5304L10.7491 14.3107L10.0294 15.0304C9.7365 15.3233 9.26162 15.3233 8.96873 15.0304C8.67584 14.7375 8.67584 14.2626 8.96873 13.9697L9.6884 13.25L8.46873 12.0304C8.17584 11.7375 8.17584 11.2626 8.46873 10.9697C8.76162 10.6768 9.2365 10.6768 9.52939 10.9697L10.7491 12.1894L12.1884 10.75L10.9687 9.53037C10.6758 9.23747 10.6758 8.7626 10.9687 8.46971C11.2616 8.17681 11.7365 8.17681 12.0294 8.46971L13.2491 9.68938L13.9687 8.96971C14.2616 8.67681 14.7365 8.67681 15.0294 8.96971Z" fill="#26272B"/>
</svg>
