<svg width="24" height="24" viewBox="0 0 24 24" fill="none" xmlns="http://www.w3.org/2000/svg">
<path fill-rule="evenodd" clip-rule="evenodd" d="M22.9998 16.2501H1.49998L1.49997 17.0003C1.49996 17.5526 1.94768 18 2.49997 18H21.9998C22.552 18 22.9998 17.5523 22.9998 17L22.9998 16.2501ZM22.9954 14.7501H1.43979C0.647124 11.3294 1.33313 8.66343 2.85196 7.07508C3.19589 6.71541 3.76376 6.76273 4.18348 7.03009C4.92089 7.49983 6.08523 7.99998 7.49966 7.99998C8.84448 7.99998 9.96323 7.24643 10.7039 6.49937C11.1619 6.03737 11.873 6.00627 12.2707 6.52114C12.3351 6.60459 12.4033 6.69079 12.4754 6.77899L10.8835 9.07248C10.6473 9.41276 10.7317 9.88007 11.072 10.1163C11.4123 10.3524 11.8796 10.268 12.1158 9.92776L13.5347 7.88341C13.8677 8.17384 14.2454 8.45385 14.6726 8.69949L13.7647 10.1408C13.5439 10.4912 13.6491 10.9543 13.9995 11.1751C14.35 11.3959 14.8131 11.2907 15.0339 10.9403L16.0685 9.29794C16.3619 9.38446 16.672 9.45318 16.9997 9.49998C20.4152 9.98792 22.8786 11.4282 22.9954 14.7501Z" fill="#26272B"/>
</svg>
