<svg width="24" height="24" viewBox="0 0 24 24" fill="none" xmlns="http://www.w3.org/2000/svg">
<path fill-rule="evenodd" clip-rule="evenodd" d="M20.3951 0.814241C21.0501 1.03255 21.404 1.74045 21.1857 2.39538C20.5865 4.19286 19.2794 5.74216 17.841 7.04998C16.7694 8.02425 15.5648 8.91713 14.4024 9.72129C14.6103 9.91374 14.8373 10.1098 15.0795 10.3067C15.1399 10.2965 15.1985 10.2857 15.2552 10.2744C15.9321 10.139 16.5907 10.578 16.7261 11.255C16.7438 11.3436 16.7517 11.432 16.7505 11.5189C18.1465 12.4289 19.5058 13.0881 20.303 13.2874C20.9728 13.4549 21.38 14.1335 21.2125 14.8033C21.0451 15.473 20.3664 15.8802 19.6967 15.7128C18.4948 15.4123 16.8567 14.5729 15.3797 13.6096C15.0376 13.3864 14.6934 13.1497 14.3555 12.903C13.1427 12.9886 11.7355 12.9424 10.3759 12.8064C9.60385 12.7292 8.8192 12.6203 8.06559 12.4813C8.02513 12.8637 8.04194 13.2962 8.11137 13.7482C8.20924 14.3853 8.39651 14.9624 8.57102 15.3424C9.18744 14.932 9.87202 14.5997 10.6698 14.4668C12.6698 14.1334 14.8414 15.1332 17.8656 17.4073L19.376 17.2563C20.0629 17.1876 20.6755 17.6888 20.7442 18.3757C20.7501 18.4348 20.7517 18.4933 20.7495 18.551C21.21 18.448 21.4679 18.3652 21.5561 18.3317C22.2014 18.0864 22.9234 18.4106 23.1687 19.0559C23.4141 19.7012 23.0898 20.4232 22.4446 20.6685C21.7176 20.9449 18.7395 21.7501 12.0003 21.7501C5.26106 21.7501 2.2835 20.9448 1.55641 20.6686C0.911055 20.4234 0.586648 19.7015 0.831823 19.0562C1.077 18.4108 1.79891 18.0864 2.44427 18.3316C2.61323 18.3958 3.40299 18.6402 5.04312 18.8608C4.77634 18.443 4.56545 17.979 4.39892 17.5136C4.12156 16.7385 3.93508 15.8688 3.8349 14.998C3.63973 13.3015 3.74831 11.3733 4.35619 9.99553L4.35874 9.98978C4.50035 9.67305 4.75778 9.44396 5.05899 9.33041C5.22257 9.26871 5.39929 9.24101 5.57779 9.25219C5.70833 9.26033 5.83959 9.28924 5.96703 9.34068C7.062 9.77795 8.8042 10.1368 10.6247 10.3188C10.9593 10.3523 11.2908 10.3792 11.6156 10.3995C11.5761 10.3496 11.5376 10.2998 11.5003 10.2501C11.2942 9.97525 11.2103 9.62768 11.2683 9.28905C11.3263 8.95043 11.5211 8.6506 11.807 8.46003C13.3036 7.46226 14.8597 6.38169 16.1592 5.20021C17.4705 4.00803 18.4132 2.80733 18.814 1.60481C19.0323 0.949881 19.7402 0.595931 20.3951 0.814241ZM7.90656 19.1326C9.0575 19.2041 10.4145 19.2501 12.0003 19.2501C13.5443 19.2501 14.8713 19.2065 16.0025 19.1382C13.2432 17.1187 11.9228 16.7924 11.0808 16.9327C10.6255 17.0086 10.1634 17.243 9.54596 17.7201C9.14396 18.0308 8.75811 18.3747 8.30267 18.7806L8.30254 18.7807L8.30248 18.7807C8.17644 18.8931 8.04508 19.0101 7.90656 19.1326ZM4.75034 5.75009C4.75037 4.3694 5.86965 3.25012 7.25034 3.25009C8.63107 3.25007 9.75037 4.36936 9.75034 5.75009C9.75031 7.13078 8.63103 8.25007 7.25034 8.25009C5.8696 8.25012 4.75031 7.13082 4.75034 5.75009Z" fill="#26272B"/>
</svg>
