<svg width="24" height="24" viewBox="0 0 24 24" fill="none" xmlns="http://www.w3.org/2000/svg">
<path fill-rule="evenodd" clip-rule="evenodd" d="M14.5 2.5C13.9477 2.5 13.5 2.94772 13.5 3.5C13.5 4.05228 13.9477 4.5 14.5 4.5H15.909C16.3746 4.5 16.7787 4.82141 16.8834 5.27514L18.6199 12.8003C16.6931 13.4357 15.1978 15.0202 14.6886 17.001L6.09963 17.0017C5.58115 16.1041 4.61112 15.5 3.5 15.5C1.84315 15.5 0.5 16.8431 0.5 18.5C0.5 20.1569 1.84315 21.5 3.5 21.5C4.61003 21.5 5.57925 20.8971 6.0981 20.001L15.5 20.0006V20C16.0523 20 16.5 19.5523 16.5 19V18.4996C16.5 16.794 17.5682 15.3362 19.0725 14.7615L19.3005 15.7494C18.2407 16.2122 17.5 17.2696 17.5 18.5C17.5 20.1569 18.8431 21.5 20.5 21.5C22.1569 21.5 23.5 20.1569 23.5 18.5C23.5 17.1281 22.5791 15.9713 21.3218 15.614L18.8321 4.82542C18.518 3.46423 17.3059 2.5 15.909 2.5H14.5ZM20.4846 17.5001C20.4946 17.5003 20.5045 17.5003 20.5145 17.5001C21.0601 17.5078 21.5 17.9525 21.5 18.5C21.5 19.0523 21.0523 19.5 20.5 19.5C19.9477 19.5 19.5 19.0523 19.5 18.5C19.5 17.9528 19.9394 17.5083 20.4846 17.5001ZM3.5 17.5C2.94772 17.5 2.5 17.9477 2.5 18.5C2.5 19.0523 2.94772 19.5 3.5 19.5C4.05228 19.5 4.5 19.0523 4.5 18.5C4.5 17.9477 4.05228 17.5 3.5 17.5Z" fill="#26272B"/>
</svg>
