<svg width="24" height="24" viewBox="0 0 24 24" fill="none" xmlns="http://www.w3.org/2000/svg">
<path fill-rule="evenodd" clip-rule="evenodd" d="M7.48223 4.93713C5.78313 5.36359 3.92315 5.50721 1.46944 4.35619C0.84443 4.063 0.575436 3.31866 0.868622 2.69366C1.16181 2.06865 1.90615 1.79965 2.53116 2.09284C4.3406 2.94164 5.58589 2.83555 6.87363 2.51234C7.17325 2.43714 7.50041 2.3395 7.8531 2.23424C8.99182 1.89439 10.3967 1.4751 12.0003 1.4751C13.6039 1.4751 15.0087 1.89431 16.1474 2.2341C16.5001 2.33934 16.8273 2.43697 17.1269 2.51216C18.4147 2.83533 19.6601 2.94141 21.4695 2.09279C22.0946 1.79966 22.8389 2.06872 23.132 2.69376C23.4251 3.31879 23.1561 4.06311 22.5311 4.35624C20.0774 5.50697 18.2175 5.36334 16.5184 4.93697C16.028 4.8139 15.5873 4.68281 15.1686 4.55828C14.1189 4.24608 13.2079 3.9751 12.0003 3.9751C10.7928 3.9751 9.88175 4.24611 8.83214 4.55836C8.41343 4.68292 7.97266 4.81404 7.48223 4.93713ZM1.69713 5.78738C2.36687 5.61995 3.04554 6.02715 3.21297 6.69689C4.1459 10.4286 5.69791 12.0533 7.50797 12.8578C7.95504 13.0565 8.428 13.211 8.92832 13.3311C7.39234 12.1324 6.7503 10.0723 6.7503 7.00006C6.7503 6.3097 7.30994 5.75006 8.0003 5.75006C8.69065 5.75006 9.2503 6.3097 9.2503 7.00006C9.2503 10.115 9.97403 11.0874 10.7048 11.5226C11.1434 11.7838 11.7403 11.9511 12.586 12.0556C13.2428 12.1368 13.9569 12.1717 14.7817 12.212C15.0329 12.2243 15.2944 12.2371 15.5677 12.2519C15.9086 12.2703 16.2272 12.4273 16.4494 12.6866C18.1728 14.6972 19.2231 17.7206 19.7377 21.3233C19.8354 22.0067 19.3605 22.6399 18.6771 22.7375C17.9937 22.8351 17.3605 22.3603 17.2629 21.6768C17.0782 20.3843 16.8264 19.2251 16.5149 18.2028C16.2772 19.5637 15.8554 21.085 15.1183 22.5591C14.8096 23.1765 14.0588 23.4268 13.4413 23.1181C12.8238 22.8094 12.5735 22.0585 12.8823 21.441C13.7662 19.6733 14.1214 17.7661 14.2464 16.2498C11.5593 16.2453 8.81577 16.1748 6.49262 15.1423C3.80269 13.9468 1.85469 11.5715 0.787618 7.30323C0.620182 6.63349 1.02738 5.95482 1.69713 5.78738ZM18.2503 12.5005C18.2503 11.1198 19.3696 10.0005 20.7503 10.0005C22.131 10.0005 23.2503 11.1198 23.2503 12.5005C23.2503 13.8812 22.131 15.0005 20.7503 15.0005C19.3696 15.0005 18.2503 13.8812 18.2503 12.5005Z" fill="#26272B"/>
</svg>
