<svg width="24" height="24" viewBox="0 0 24 24" fill="none" xmlns="http://www.w3.org/2000/svg">
<path fill-rule="evenodd" clip-rule="evenodd" d="M14.1219 3.51508L14.1218 3.51519L13.7679 3.16126C13.3774 2.77074 12.7442 2.77074 12.3537 3.16126L10.9395 4.57547C10.5489 4.966 10.5489 5.59916 10.9395 5.98969L11.6466 6.69679C11.713 6.76318 11.7864 6.81827 11.8644 6.86209L11.8783 6.86975C12.2573 7.07497 12.7409 7.01741 13.0613 6.69706L14.4755 5.28285C14.866 4.89232 14.866 4.25916 14.4755 3.86863L14.1219 3.51508ZM15.5361 2.80797L15.2614 2.53327C17 1.43777 19.3251 1.64719 20.8394 3.16153C22.3538 4.67586 22.5632 7.00096 21.4677 8.73953L21.193 8.46483C20.2167 7.48851 18.6338 7.48851 17.6575 8.46483L17.4807 8.6416L15.3594 6.52028L15.5361 6.34351C16.5124 5.36719 16.5124 3.78428 15.5361 2.80797ZM14.2987 7.58094L14.1219 7.75772C13.1456 8.73403 11.5627 8.73403 10.5864 7.75772L10.2328 7.40417L7.40372 10.2333L7.75727 10.5868C8.73358 11.5631 8.73358 13.1461 7.75727 14.1224L7.58119 14.2985L9.70251 16.4198L9.87859 16.2437C10.8549 15.2674 12.4378 15.2674 13.4141 16.2437L13.7677 16.5972L16.5968 13.7681L16.2432 13.4146C15.2669 12.4383 15.2669 10.8554 16.2432 9.87904L16.42 9.70226L14.2987 7.58094ZM6.34306 15.5366L6.52053 15.3591L8.64185 17.4804L8.46438 17.6579C7.48807 18.6342 7.48807 20.2171 8.46438 21.1934L8.73893 21.468C7.00044 22.5629 4.67585 22.3533 3.16177 20.8392C1.64768 19.3251 1.43809 17.0005 2.53298 15.262L2.80753 15.5366C3.78384 16.5129 5.36675 16.5129 6.34306 15.5366ZM12.3017 17.2561C11.9089 16.9138 11.3124 16.9296 10.9384 17.3036L9.52419 18.7178C9.13367 19.1084 9.13367 19.7415 9.52419 20.132L10.2313 20.8391C10.6218 21.2297 11.255 21.2297 11.6455 20.8391L13.0597 19.4249C13.4503 19.0344 13.4503 18.4012 13.0597 18.0107L12.707 17.658L12.707 17.6579L12.3535 17.3043C12.3367 17.2875 12.3194 17.2715 12.3017 17.2561ZM20.1323 9.52549L20.4859 9.87904L20.4858 9.87915L20.839 10.2324C21.2295 10.6229 21.2295 11.2561 20.839 11.6466L19.4248 13.0608C19.0343 13.4514 18.4011 13.4514 18.0106 13.0608L17.3035 12.3537C16.913 11.9632 16.913 11.33 17.3035 10.9395L18.7177 9.52529C19.0159 9.22708 19.4556 9.1566 19.8207 9.31383C19.8293 9.31751 19.8378 9.32133 19.8463 9.32527C19.9499 9.37332 20.0469 9.44006 20.1323 9.52549ZM6.34301 11.294L6.34306 11.2939L6.69661 11.6475C6.80571 11.7566 6.88433 11.8846 6.93247 12.021C7.05675 12.3729 6.97815 12.7804 6.69667 13.0619L5.28246 14.4761C4.89193 14.8666 4.25877 14.8666 3.86824 14.4761L3.16114 13.769C2.77061 13.3785 2.77061 12.7453 3.16114 12.3548L4.57535 10.9406C4.96588 10.55 5.59904 10.55 5.98956 10.9406L6.34301 11.294Z" fill="#26272B"/>
</svg>
