<svg width="24" height="24" viewBox="0 0 24 24" fill="none" xmlns="http://www.w3.org/2000/svg">
<path fill-rule="evenodd" clip-rule="evenodd" d="M5.60483 1.31424C6.25976 1.09593 6.96765 1.44988 7.18596 2.10481C7.29228 2.42376 7.40876 2.7325 7.53524 3.0311C7.86935 2.63388 8.18187 2.22395 8.46003 1.80672C8.84297 1.23231 9.61905 1.07709 10.1935 1.46003C10.7679 1.84297 10.9231 2.61906 10.5402 3.19347C10.0384 3.94606 9.45573 4.6622 8.84604 5.32375C9.71837 6.48254 10.811 7.41185 12.1074 8.11798C14.4645 9.40187 17.5809 9.99261 21.4221 9.75253C22.1111 9.70947 22.7046 10.2331 22.7477 10.9221C22.7907 11.6111 22.2671 12.2046 21.5781 12.2477C18.9717 12.4106 16.5764 12.2271 14.4408 11.6804C12.3068 12.7866 10.4452 13.3684 8.84315 13.5589C8.82978 13.8695 8.82423 14.224 8.82809 14.6288C8.84121 16.0073 8.95753 17.828 9.15177 20.2501H9.99992C10.6903 20.2501 11.2499 20.8097 11.2499 21.5001C11.2499 22.1905 10.6903 22.7501 9.99992 22.7501H7.99992C7.3498 22.7501 6.80821 22.2518 6.75423 21.6039C6.50471 18.6087 6.34432 16.346 6.3282 14.6526C6.32444 14.2577 6.32805 13.8821 6.34173 13.526C5.39712 13.3715 4.58376 13.0529 3.8968 12.6204C2.82925 11.9483 2.14147 11.0379 1.80147 10.1936C1.6348 9.77973 1.52899 9.32458 1.54689 8.88393C1.56195 8.51309 1.69699 7.75403 2.44088 7.38207C2.81298 7.19601 3.85082 6.51754 5.06544 5.48516C5.26692 5.31391 5.47066 5.13509 5.67455 4.94961C5.34275 4.30429 5.05552 3.61918 4.81426 2.89538C4.59595 2.24045 4.9499 1.53255 5.60483 1.31424ZM7.04356 7.07937C6.92275 7.18579 6.80293 7.28939 6.68453 7.39003C5.72122 8.20881 4.79904 8.87536 4.13309 9.29015C4.28444 9.64621 4.62597 10.1253 5.22874 10.5048C5.59397 10.7347 6.08808 10.9451 6.7328 11.0532C6.77234 10.9424 6.81535 10.8356 6.86208 10.7328C7.09759 10.2147 7.43335 9.78079 7.89172 9.45541C8.21561 9.22548 8.56428 9.07569 8.91435 8.97569C8.22305 8.41172 7.5985 7.77886 7.04356 7.07937ZM13.7501 5.75009C13.7501 4.36938 14.8694 3.25009 16.2501 3.25009C17.6308 3.25009 18.7501 4.36938 18.7501 5.75009C18.7501 7.13081 17.6308 8.25009 16.2501 8.25009C14.8694 8.25009 13.7501 7.13081 13.7501 5.75009Z" fill="#26272B"/>
</svg>
