<svg width="24" height="24" viewBox="0 0 24 24" fill="none" xmlns="http://www.w3.org/2000/svg">
<path fill-rule="evenodd" clip-rule="evenodd" d="M8.75593 1.72251C8.93538 1.05588 9.62126 0.660948 10.2879 0.840399C12.218 1.35997 13.7223 2.19999 14.7476 3.36876C15.7877 4.55452 16.25 5.98307 16.25 7.49958C16.25 8.50239 16.1056 9.78869 15.3918 11.0738C15.7817 12.1261 15.875 13.1926 15.875 14C15.875 14.173 15.8707 14.3373 15.8636 14.4909C17.7964 14.7646 19.5666 15.251 20.8532 15.8432C21.3626 16.0777 21.8356 16.3465 22.2237 16.6531C22.5939 16.9455 22.9935 17.3555 23.1867 17.903C23.411 18.5384 23.2995 19.1988 22.8981 19.7378C22.5487 20.207 22.0281 20.5245 21.4981 20.7548C20.439 21.2149 18.8249 21.5438 16.6132 21.7449C15.9256 21.8074 15.3176 21.3007 15.2551 20.6132C15.1926 19.9257 15.6993 19.3177 16.3868 19.2552C18.5004 19.063 19.7849 18.7666 20.475 18.4734C20.3041 18.3625 20.0829 18.2408 19.8078 18.1142C18.3643 17.4497 15.9616 16.8849 13.4234 16.771C13.2232 17.2544 12.9521 17.7367 12.5912 18.2029C10.9359 20.3406 7.6956 21.75 2 21.75C1.30964 21.75 0.75 21.1904 0.75 20.5C0.75 19.8097 1.30964 19.25 2 19.25C7.38132 19.25 9.65644 17.9095 10.6146 16.6722C10.9234 16.2734 11.1269 15.8452 11.2532 15.4104C11.263 15.2717 11.2955 15.1392 11.3469 15.0167C11.3795 14.8435 11.4013 14.6704 11.414 14.4987C9.63706 15.3189 7.26603 15.9292 4.12438 16.2434C3.43745 16.3121 2.8249 15.8109 2.7562 15.124C2.68751 14.437 3.18869 13.8245 3.87562 13.7558C8.74909 13.2684 11.1745 12.0697 12.3851 10.9096C13.546 9.79706 13.75 8.56386 13.75 7.49958C13.75 6.51609 13.4623 5.69463 12.8682 5.01736C12.2592 4.32309 11.245 3.68704 9.63804 3.25446C8.97141 3.07501 8.57648 2.38913 8.75593 1.72251ZM7.46296 7.74958C7.46296 6.36887 8.58225 5.24958 9.96296 5.24958C11.3437 5.24958 12.463 6.36887 12.463 7.74958C12.463 9.13029 11.3437 10.2496 9.96296 10.2496C8.58225 10.2496 7.46296 9.13029 7.46296 7.74958Z" fill="#26272B"/>
</svg>
