<svg width="24" height="24" viewBox="0 0 24 24" fill="none" xmlns="http://www.w3.org/2000/svg">
<path fill-rule="evenodd" clip-rule="evenodd" d="M9.11176 1.03526C9.28905 0.368056 9.97364 -0.0291002 10.6408 0.148187C11.9047 0.484002 13.3024 0.909854 14.555 1.44477C15.7749 1.96571 17.0075 2.65132 17.8017 3.57642C18.2135 4.05619 18.5429 4.64144 18.6507 5.33183C18.7604 6.03366 18.6237 6.73338 18.2842 7.39874C17.7194 8.50546 16.5715 9.5648 14.8801 10.628C15.5315 12.4221 15.9969 14.0331 16.1221 15.786C16.2311 17.3119 16.0793 18.8904 15.6341 20.75H16.0003C16.6907 20.75 17.2503 21.3097 17.2503 22C17.2503 22.6904 16.6907 23.25 16.0003 23.25H14.0003C13.6052 23.25 13.2333 23.0632 12.9975 22.7462C12.7616 22.4292 12.6895 22.0193 12.803 21.6408C13.4766 19.3956 13.7083 17.7505 13.6464 16.2791C13.5924 16.5342 13.5281 16.7876 13.4539 17.0401C12.9013 18.9196 11.8076 20.6927 10.5952 22.6566C10.3675 23.0255 9.96502 23.25 9.53157 23.25H7.5008C6.81044 23.25 6.2508 22.6904 6.2508 22C6.2508 21.3097 6.81044 20.75 7.5008 20.75H8.83316C9.89811 19.0124 10.6596 17.6812 11.0554 16.3349C11.3935 15.185 11.4713 13.9877 11.1254 12.4884C10.2687 12.7758 9.49044 12.9165 8.7859 12.906C8.0339 12.8948 7.34485 12.7105 6.7552 12.3305C6.16702 11.9513 5.75234 11.4255 5.47108 10.8477C4.92908 9.7342 4.84262 8.34969 4.92968 7.05018C5.01895 5.71759 5.30378 4.3063 5.64876 3.02978C5.82887 2.36333 6.51514 1.96907 7.18159 2.14918C7.84803 2.32929 8.24229 3.01556 8.06218 3.68201C7.74358 4.86093 7.49883 6.10158 7.42409 7.21728C7.34713 8.36605 7.46223 9.22618 7.71892 9.75354C7.837 9.99612 7.97096 10.1398 8.10963 10.2292C8.24683 10.3176 8.46287 10.4009 8.82312 10.4063C9.59506 10.4177 10.8823 10.0678 12.8751 8.91729C14.8806 7.7594 15.7532 6.85849 16.0573 6.26246C16.1924 5.99772 16.1979 5.82809 16.1807 5.71777C16.1617 5.59602 16.0949 5.42634 15.9048 5.20482C15.4949 4.72733 14.6996 4.22493 13.5732 3.74391C12.4795 3.27688 11.2126 2.88685 9.99884 2.56434C9.33163 2.38706 8.93448 1.70246 9.11176 1.03526ZM8.50032 6.25003C8.50032 4.86932 9.61961 3.75003 11.0003 3.75003C12.381 3.75003 13.5003 4.86931 13.5003 6.25003C13.5003 7.63074 12.381 8.75003 11.0003 8.75003C9.61961 8.75003 8.50032 7.63074 8.50032 6.25003Z" fill="#26272B"/>
</svg>
