<svg width="24" height="24" viewBox="0 0 24 24" fill="none" xmlns="http://www.w3.org/2000/svg">
<path fill-rule="evenodd" clip-rule="evenodd" d="M14.189 6.93342C14.0869 7.34824 13.8939 7.75628 13.5401 8.08107C13.1192 8.46753 12.6306 8.58676 12.2862 8.63529C12.0402 8.66996 11.747 8.68023 11.5267 8.68795C11.4682 8.69 11.4149 8.69187 11.369 8.69397C10.8512 8.7176 10.4127 8.77831 9.9474 9.07643C9.46805 9.38356 8.82077 10.0366 8.13459 11.5233C8.02559 11.7594 7.84564 11.9557 7.61981 12.0848C6.34569 12.8128 5.70517 14.1961 5.41857 15.8395C5.23531 16.8903 5.21693 17.9065 5.22777 18.7499H5.99968C6.69003 18.7499 7.24968 19.3096 7.24968 19.9999C7.24968 20.6903 6.69003 21.2499 5.99968 21.2499H3.99968C3.30932 21.2499 2.74968 20.6903 2.74968 19.9999C2.74968 19.8718 2.74555 19.7056 2.74065 19.5079C2.71792 18.5914 2.67845 16.9999 2.95575 15.4099C3.20182 13.999 3.72348 12.4064 4.84584 11.1533C4.51112 10.7568 4.24992 10.215 4.24964 9.50044C4.24945 9.01387 4.45579 8.57175 4.62126 8.27729C4.8097 7.94195 5.06318 7.59565 5.35246 7.25908C5.93241 6.5843 6.73046 5.86259 7.65341 5.25101C9.4327 4.07197 12.0695 3.0635 14.5522 4.28444C16.6455 5.31387 18.1281 6.79959 19.105 8.11969C20.053 9.40081 20.6016 10.6334 20.7259 11.2549C20.7888 11.5695 20.8206 12.1374 20.8297 12.7552C20.8394 13.4135 20.824 14.2396 20.7639 15.1264C20.6876 16.2534 20.5347 17.5541 20.2382 18.75H20.5001C21.1905 18.75 21.7501 19.3097 21.7501 20C21.7501 20.6904 21.1905 21.25 20.5001 21.25H18.5001C18.0732 21.25 17.6757 21.0321 17.4462 20.6721C17.2166 20.3121 17.1867 19.8598 17.3668 19.4727C17.8777 18.3748 18.1561 16.6337 18.2697 14.9574C18.3249 14.1427 18.3387 13.3854 18.33 12.7919C18.3256 12.4951 18.3157 12.245 18.3032 12.0535C18.297 11.9577 18.2904 11.8811 18.2842 11.8235C18.2775 11.7611 18.2732 11.7392 18.2744 11.7451C18.2745 11.7454 18.2744 11.7452 18.2742 11.7443C18.272 11.736 18.2555 11.6718 18.207 11.5449C18.1574 11.4153 18.0845 11.2465 17.9853 11.0468C17.7869 10.6472 17.4936 10.1449 17.0954 9.60682C16.4216 8.69634 15.4668 7.70901 14.189 6.93342ZM7.49964 14.2499C7.49964 12.8692 8.61893 11.7499 9.99964 11.7499C11.3804 11.7499 12.4996 12.8692 12.4996 14.2499C12.4996 15.6307 11.3804 16.7499 9.99964 16.7499C8.61893 16.7499 7.49964 15.6307 7.49964 14.2499Z" fill="#26272B"/>
</svg>
