<svg width="24" height="24" viewBox="0 0 24 24" fill="none" xmlns="http://www.w3.org/2000/svg">
<g clip-path="url(#clip0_140_4215)">
<path fill-rule="evenodd" clip-rule="evenodd" d="M8.90091 0.937743C8.82901 0.893191 8.75148 0.855311 8.66885 0.825236C8.02013 0.589121 7.30283 0.923604 7.06671 1.57233L3.14906 12.336C3.01474 12.4001 2.8642 12.4777 2.70748 12.5689C2.23914 12.8414 1.434 13.3933 1.10395 14.3001C0.866379 14.9528 0.788204 15.6753 1.0513 16.3541C1.32488 17.06 1.88712 17.5117 2.51263 17.7393C3.13813 17.967 3.85917 17.9824 4.52247 17.6175C5.16033 17.2666 5.56484 16.6629 5.80242 16.0102C6.00296 15.4592 5.98491 14.8959 5.89868 14.4243C8.09022 15.0062 10.2159 14.9622 11.9926 14.3742C13.268 13.9522 14.3915 13.235 15.1903 12.2536C15.8499 12.2798 16.1365 12.443 16.3046 12.5904C16.3658 12.644 16.4253 12.7076 16.4851 12.7851C15.4608 13.2539 14.3535 13.8867 13.4651 14.8309C12.4347 15.926 11.7638 17.365 11.7009 19.2499H11.0009C10.3106 19.2499 9.75093 19.8096 9.75093 20.4999C9.75093 20.5661 9.75606 20.631 9.76596 20.6944C5.50002 20.5119 3.70909 19.9372 3.46409 19.8393C2.82309 19.5829 2.09565 19.8948 1.83932 20.5358C1.58298 21.1768 1.89481 21.9042 2.53581 22.1605C3.2442 22.4438 6.08943 23.2499 12.5 23.2499C18.9103 23.2499 21.7561 22.4439 22.4644 22.1604C23.1053 21.9039 23.417 21.1764 23.1605 20.5355C22.9944 20.1204 22.6308 19.8435 22.2211 19.7695C22.296 19.4303 22.2267 19.0721 22.0245 18.7833C20.7999 17.0338 20.2993 15.583 19.8431 14.2611L19.8422 14.2582C19.8102 14.1657 19.7785 14.0738 19.7468 13.9825C20.0054 13.796 20.2402 13.5805 20.4297 13.3296C20.6569 13.029 20.8328 12.6584 20.8799 12.2259C20.9272 11.7908 20.8345 11.38 20.6595 11.0176C20.3319 10.339 19.6981 9.78768 18.9737 9.31931C18.2969 8.88176 17.421 8.44122 16.3409 7.99248C16.1415 6.79067 15.551 5.64317 14.7232 4.64901C13.3811 3.03711 11.3358 1.70833 8.90091 0.937743ZM8.98226 3.61891L5.98805 11.8454C7.98373 12.4907 9.81946 12.46 11.2072 12.0008C12.6169 11.5343 13.4963 10.6618 13.8027 9.64072C14.0953 8.66515 13.8151 7.46543 12.802 6.24864C11.9504 5.22583 10.6381 4.27743 8.98226 3.61891ZM14.23 20.7285C15.6775 20.6915 16.8777 20.6101 17.8588 20.5105C17.8294 20.4446 17.8053 20.3753 17.7872 20.3029C17.6199 19.6331 18.0272 18.9545 18.697 18.7872L19.0306 18.7038C18.2635 17.3217 17.8155 16.0693 17.4755 15.0823C16.625 15.4757 15.8636 15.93 15.2858 16.544C14.5563 17.3194 14.0306 18.4475 14.2434 20.3618C14.2571 20.4853 14.2522 20.6088 14.23 20.7285ZM7.99993 8.7499C7.99996 7.36922 9.11923 6.24993 10.4999 6.2499C11.8806 6.24988 13 7.36916 12.9999 8.7499C12.9999 10.1306 11.8806 11.2499 10.4999 11.2499C9.11919 11.2499 7.9999 10.1306 7.99993 8.7499Z" fill="#26272B"/>
</g>
<defs>
<clipPath id="clip0_140_4215">
<rect width="24" height="24" fill="white"/>
</clipPath>
</defs>
</svg>
