<svg width="24" height="24" viewBox="0 0 24 24" fill="none" xmlns="http://www.w3.org/2000/svg">
<path fill-rule="evenodd" clip-rule="evenodd" d="M15.8135 16.5821C16.7836 15.8569 17.6524 14.8855 18.354 13.6702C20.9255 9.21637 19.5178 4.45627 15.6915 2.24714C11.8651 0.0380061 7.06906 1.21637 4.49763 5.67021C3.79599 6.88548 3.38911 8.12355 3.2461 9.32637L9.39018 12.8737L15.8135 16.5821ZM14.339 17.4629L8.64018 14.1727L3.22059 11.0437C3.4506 13.562 4.8638 15.7791 7.14012 17.0933C9.41643 18.4075 12.0431 18.5229 14.339 17.4629ZM5.34395 17.6972L3.19526 20.6947C3.02308 20.9349 3.09569 21.2713 3.35164 21.419L5.3547 22.5755C5.61439 22.7254 5.94674 22.6147 6.06452 22.3389L7.51223 18.9493C7.13192 18.7899 6.75688 18.6042 6.38909 18.3918C6.02099 18.1793 5.67235 17.9472 5.34395 17.6972ZM18.999 22.5C20.3797 22.5 21.499 21.3807 21.499 20C21.499 18.6193 20.3797 17.5 18.999 17.5C17.6183 17.5 16.499 18.6193 16.499 20C16.499 21.3807 17.6183 22.5 18.999 22.5Z" fill="#26272B"/>
</svg>
