<svg width="24" height="24" viewBox="0 0 24 24" fill="none" xmlns="http://www.w3.org/2000/svg">
<g clip-path="url(#clip0_140_4132)">
<path fill-rule="evenodd" clip-rule="evenodd" d="M13.25 1.5C13.25 0.809644 12.6904 0.25 12 0.25C11.3096 0.25 10.75 0.809644 10.75 1.5V3.59127C7.05617 4.13566 4.13566 7.05616 3.59127 10.75H1.5C0.809644 10.75 0.25 11.3096 0.25 12C0.25 12.6904 0.809644 13.25 1.5 13.25H3.59127C4.13566 16.9438 7.05617 19.8643 10.75 20.4087V22.5C10.75 23.1904 11.3096 23.75 12 23.75C12.6904 23.75 13.25 23.1904 13.25 22.5V20.4087C16.9438 19.8643 19.8643 16.9438 20.4087 13.25H22.5C23.1904 13.25 23.75 12.6904 23.75 12C23.75 11.3096 23.1904 10.75 22.5 10.75H20.4087C19.8643 7.05617 16.9438 4.13566 13.25 3.59127V1.5ZM8.25 12C8.25 9.92893 9.92893 8.25 12 8.25C14.0711 8.25 15.75 9.92893 15.75 12C15.75 14.0711 14.0711 15.75 12 15.75C9.92893 15.75 8.25 14.0711 8.25 12ZM12 6.75C9.1005 6.75 6.75 9.1005 6.75 12C6.75 14.8995 9.1005 17.25 12 17.25C14.8995 17.25 17.25 14.8995 17.25 12C17.25 9.1005 14.8995 6.75 12 6.75Z" fill="#26272B"/>
</g>
<defs>
<clipPath id="clip0_140_4132">
<rect width="24" height="24" fill="white"/>
</clipPath>
</defs>
</svg>
