<svg width="24" height="24" viewBox="0 0 24 24" fill="none" xmlns="http://www.w3.org/2000/svg">
<path fill-rule="evenodd" clip-rule="evenodd" d="M1.56513 10.8308C2.10427 5.96608 5.96683 2.10364 10.8316 1.5647C11.103 2.32585 11.2507 3.14567 11.2507 4.00001C11.2507 8.00408 8.00479 11.25 4.00072 11.25C3.14628 11.25 2.32636 11.1022 1.56513 10.8308ZM12.7507 4.00001C12.7507 3.13402 12.6249 2.2974 12.3906 1.50745C17.8795 1.70779 22.2931 6.12136 22.4936 11.6103C21.7036 11.3759 20.8668 11.25 20.0007 11.25C15.1682 11.25 11.2507 15.1675 11.2507 20C11.2507 20.8663 11.3766 21.7031 11.6111 22.4932C6.12183 22.293 1.70795 17.879 1.50781 12.3898C2.29787 12.6242 3.1346 12.75 4.00072 12.75C8.83322 12.75 12.7507 8.83251 12.7507 4.00001ZM22.4364 13.1693C21.8975 18.0342 18.035 21.8969 13.1701 22.436C12.8986 21.6746 12.7507 20.8546 12.7507 20C12.7507 15.9959 15.9967 12.75 20.0007 12.75C20.8552 12.75 21.6751 12.8978 22.4364 13.1693Z" fill="#26272B"/>
</svg>
