<svg width="24" height="24" viewBox="0 0 24 24" fill="none" xmlns="http://www.w3.org/2000/svg">
<path fill-rule="evenodd" clip-rule="evenodd" d="M11.5775 1.50867C7.17792 1.68278 3.47427 4.56392 2.08618 8.53244C2.09086 8.53831 2.09546 8.54427 2.1 8.55032C3.13004 9.9237 4.42583 10.797 5.83188 11.5113C6.49875 11.8501 7.17917 12.1478 7.87105 12.4505L7.99705 12.5056C8.72416 12.8239 9.46477 13.1513 10.1662 13.5265C11.5779 14.2816 12.8907 15.2609 13.7612 16.87C14.4795 18.1978 14.8615 19.8886 14.8244 22.1161C18.84 20.9973 21.8858 17.5516 22.4174 13.3234C20.5215 13.3698 19.0858 12.9796 17.9639 12.224C16.6371 11.3305 15.8628 9.99941 15.2515 8.61594C14.9972 8.04043 14.762 7.43327 14.529 6.832C14.482 6.7106 14.4351 6.58945 14.3881 6.46885C14.1049 5.74198 13.8153 5.02193 13.474 4.32068C12.9819 3.30928 12.3888 2.35131 11.5775 1.50867ZM22.4985 11.8205C20.7648 11.8812 19.6209 11.5314 18.8018 10.9798C17.8316 10.3264 17.1997 9.31373 16.6235 8.0097C16.3846 7.46906 16.1644 6.90078 15.9316 6.29999L15.9316 6.29994C15.8836 6.17614 15.8351 6.05097 15.7858 5.92437C15.5006 5.19225 15.1925 4.42402 14.8228 3.66433C14.4869 2.97393 14.0975 2.28509 13.621 1.62468C18.5928 2.39514 22.4117 6.65356 22.4985 11.8205ZM12 22.5003C12.4457 22.5003 12.8849 22.4725 13.3161 22.4186C13.3953 20.1978 13.0357 18.6814 12.4419 17.5837C11.7656 16.3335 10.7346 15.5316 9.45876 14.8492C8.81648 14.5056 8.1274 14.2001 7.39553 13.8798L7.26052 13.8207L7.2605 13.8207L7.26036 13.8206C6.57688 13.5216 5.85936 13.2078 5.15249 12.8487C3.92776 12.2265 2.70246 11.4531 1.63356 10.3211C1.54567 10.8679 1.5 11.4288 1.5 12.0003C1.5 17.7993 6.20101 22.5003 12 22.5003Z" fill="#26272B"/>
</svg>
