<svg width="24" height="24" viewBox="0 0 24 24" fill="none" xmlns="http://www.w3.org/2000/svg">
<path fill-rule="evenodd" clip-rule="evenodd" d="M0.88224 4.94101C1.19098 4.32354 1.94182 4.07326 2.55929 4.382C6.50329 6.354 9.21329 7.27471 11.8586 7.50473C14.5142 7.73565 17.2186 7.28197 21.1971 6.28735C21.5287 6.20444 21.8799 6.26097 22.1687 6.44377C22.4576 6.62656 22.659 6.91968 22.726 7.25488L23.226 9.75488C23.3614 10.4318 22.9224 11.0904 22.2454 11.2258C21.5685 11.3611 20.9099 10.9221 20.7745 10.2452L20.5301 9.02271C18.8158 9.42716 17.2756 9.7315 15.8169 9.9036C15.9189 11.472 16.0164 13.4584 16.0927 15.1626C16.1396 16.212 16.1788 17.1595 16.2061 17.8446C16.2198 18.1871 16.2306 18.4642 16.2379 18.6558L16.2492 18.9525L16.2492 18.9537C16.2492 18.9538 16.2492 18.9538 15.0001 19L16.2492 18.9537C16.2617 19.293 16.1357 19.6229 15.9001 19.8674C15.6645 20.1119 15.3396 20.25 15.0001 20.25H13.0003C12.3099 20.25 11.7503 19.6904 11.7503 19C11.7503 18.3097 12.3099 17.75 13.0003 17.75H13.7003C13.6737 17.0881 13.6376 16.223 13.5952 15.2744C13.5558 14.3951 13.5111 13.4477 13.4634 12.5258C13.3314 12.5312 13.1933 12.5353 13.0518 12.5376C12.6347 12.5444 12.1597 12.5354 11.7195 12.4843C11.3374 12.4399 10.7616 12.3436 10.3067 12.0402C9.49204 11.4969 9.27148 10.6829 9.22327 10.1038C9.2088 9.93003 9.20818 9.76397 9.21284 9.61782C8.94667 9.55851 8.67895 9.49315 8.40903 9.42165C8.11563 10.4762 7.14832 11.25 6.00027 11.25C4.61956 11.25 3.50027 10.1307 3.50027 8.75003C3.50027 8.37771 3.58167 8.02439 3.72763 7.70691C2.99941 7.38005 2.24003 7.01745 1.44126 6.61806C0.823784 6.30933 0.573503 5.55849 0.88224 4.94101Z" fill="#26272B"/>
</svg>
