<svg width="24" height="24" viewBox="0 0 24 24" fill="none" xmlns="http://www.w3.org/2000/svg">
<path d="M12 3C13.9891 3 15.8968 3.84633 17.3033 5.3528C18.7098 6.85927 19.5 8.90248 19.5 11.0329C19.5 13.7766 18.1033 16.0223 16.6317 17.6334C15.8964 18.4296 15.0941 19.1514 14.235 19.7898L13.88 20.0486L13.7133 20.1673L13.3992 20.3815L13.1192 20.5645L12.7725 20.7805C12.5372 20.9243 12.2709 21 12 21C11.7291 21 11.4628 20.9243 11.2275 20.7805L10.8808 20.5645L10.4475 20.2789L10.2875 20.1673L9.94583 19.9236C9.01903 19.252 8.15575 18.4849 7.36833 17.6334C5.89667 16.0214 4.5 13.7766 4.5 11.0329C4.5 8.90248 5.29018 6.85927 6.6967 5.3528C8.10322 3.84633 10.0109 3 12 3ZM12 8.3553C11.6717 8.3553 11.3466 8.42456 11.0433 8.55912C10.74 8.69369 10.4644 8.89092 10.2322 9.13956C10.0001 9.38821 9.81594 9.68339 9.6903 10.0083C9.56466 10.3331 9.5 10.6813 9.5 11.0329C9.5 11.3846 9.56466 11.7328 9.6903 12.0576C9.81594 12.3825 10.0001 12.6777 10.2322 12.9263C10.4644 13.175 10.74 13.3722 11.0433 13.5068C11.3466 13.6413 11.6717 13.7106 12 13.7106C12.663 13.7106 13.2989 13.4285 13.7678 12.9263C14.2366 12.4242 14.5 11.7431 14.5 11.0329C14.5 10.3228 14.2366 9.64172 13.7678 9.13956C13.2989 8.63741 12.663 8.3553 12 8.3553Z" fill="#6E87C8"/>
</svg>
