<svg width="12" height="16" viewBox="0 0 12 16" fill="none" xmlns="http://www.w3.org/2000/svg">
<path d="M11.5411 0.352185C11.8349 0.577756 12 0.883657 12 1.20262C12 1.52157 11.8349 1.82747 11.5411 2.05305L3.78308 8.00726L11.5411 13.9615C11.8266 14.1883 11.9846 14.4922 11.981 14.8076C11.9774 15.123 11.8126 15.4247 11.522 15.6477C11.2314 15.8707 10.8383 15.9972 10.4274 16C10.0165 16.0027 9.62058 15.8815 9.32499 15.6623L0.458878 8.85769C0.165059 8.63212 0 8.32622 0 8.00726C0 7.6883 0.165059 7.3824 0.458878 7.15683L9.32499 0.352185C9.6189 0.126681 10.0175 0 10.4331 0C10.8486 0 11.2472 0.126681 11.5411 0.352185Z" fill="white"/>
</svg>
